MozillaHeadline-ExpandedExtraLight.ufo
<glyph name="exclam" format="1">
  <advance width="298"/>
  <unicode hex="0021"/>
  <outline>
    <contour>
      <point x="130" y="174" type="line"/>
      <point x="168" y="174" type="line"/>
      <point x="185" y="636" type="line"/>
      <point x="185" y="690" type="line"/>
      <point x="113" y="690" type="line"/>
      <point x="113" y="636" type="line"/>
    </contour>
    <contour>
      <point x="106" y="0" type="line"/>
      <point x="192" y="0" type="line"/>
      <point x="192" y="82" type="line"/>
      <point x="106" y="82" type="line"/>
    </contour>
  </outline>
</glyph>
<glyph name="numbersign" format="1">
  <advance width="734"/>
  <unicode hex="0023"/>
  <outline>
    <contour>
      <point x="135" y="0" type="line"/>
      <point x="192" y="0" type="line"/>
      <point x="326" y="690" type="line"/>
      <point x="269" y="690" type="line"/>
    </contour>
    <contour>
      <point x="408" y="0" type="line"/>
      <point x="465" y="0" type="line"/>
      <point x="599" y="690" type="line"/>
      <point x="542" y="690" type="line"/>
    </contour>
    <contour>
      <point x="105" y="438" type="line"/>
      <point x="671" y="438" type="line"/>
      <point x="671" y="490" type="line"/>
      <point x="105" y="490" type="line"/>
    </contour>
    <contour>
      <point x="63" y="200" type="line"/>
      <point x="629" y="200" type="line"/>
      <point x="629" y="252" type="line"/>
      <point x="63" y="252" type="line"/>
    </contour>
  </outline>
</glyph>
<glyph name="quotesingle" format="1">
  <advance width="241"/>
  <unicode hex="0027"/>
  <outline>
    <contour>
      <point x="104" y="506" type="line"/>
      <point x="138" y="506" type="line"/>
      <point x="155" y="652" type="line"/>
      <point x="155" y="690" type="line"/>
      <point x="87" y="690" type="line"/>
      <point x="87" y="652" type="line"/>
    </contour>
  </outline>
</glyph>
<glyph name="parenright" format="1">
  <advance width="352"/>
  <unicode hex="0029"/>
  <outline>
    <contour>
      <point x="94" y="782" type="curve"/>
      <point x="24" y="782" type="line"/>
      <point x="170" y="643"/>
      <point x="218" y="540"/>
      <point x="218" y="365" type="curve" smooth="yes"/>
      <point x="218" y="325" type="line" smooth="yes"/>
      <point x="218" y="150"/>
      <point x="170" y="47"/>
      <point x="24" y="-92" type="curve"/>
      <point x="94" y="-92" type="line"/>
      <point x="227" y="24"/>
      <point x="282" y="151"/>
      <point x="282" y="345" type="curve" smooth="yes"/>
      <point x="282" y="539"/>
      <point x="227" y="666"/>
    </contour>
  </outline>
</glyph>
<glyph name="asterisk" format="1">
  <advance width="478"/>
  <unicode hex="002A"/>
  <outline>
    <contour>
      <point x="75" y="549" type="line"/>
      <point x="149" y="525" type="line"/>
      <point x="211" y="522" type="line"/>
      <point x="213" y="515" type="line"/>
      <point x="165" y="476" type="line"/>
      <point x="119" y="413" type="line"/>
      <point x="168" y="378" type="line"/>
      <point x="213" y="441" type="line"/>
      <point x="235" y="499" type="line"/>
      <point x="243" y="499" type="line"/>
      <point x="265" y="441" type="line"/>
      <point x="310" y="378" type="line"/>
      <point x="359" y="413" type="line"/>
      <point x="313" y="476" type="line"/>
      <point x="263" y="515" type="line"/>
      <point x="265" y="522" type="line"/>
      <point x="329" y="525" type="line"/>
      <point x="403" y="549" type="line"/>
      <point x="385" y="606" type="line"/>
      <point x="310" y="582" type="line"/>
      <point x="258" y="546" type="line"/>
      <point x="252" y="550" type="line"/>
      <point x="269" y="612" type="line"/>
      <point x="269" y="690" type="line"/>
      <point x="209" y="690" type="line"/>
      <point x="209" y="612" type="line"/>
      <point x="226" y="550" type="line"/>
      <point x="220" y="546" type="line"/>
      <point x="168" y="582" type="line"/>
      <point x="93" y="606" type="line"/>
    </contour>
  </outline>
</glyph>
<glyph name="one" format="1">
  <advance width="546"/>
  <unicode hex="0031"/>
  <outline>
    <contour>
      <point x="57" y="0" type="line"/>
      <point x="521" y="0" type="line"/>
      <point x="521" y="54" type="line"/>
      <point x="322" y="54" type="line"/>
      <point x="322" y="690" type="line"/>
      <point x="282" y="690" type="line"/>
      <point x="61" y="575" type="line"/>
      <point x="61" y="519" type="line"/>
      <point x="256" y="620" type="line"/>
      <point x="256" y="54" type="line"/>
      <point x="57" y="54" type="line"/>
    </contour>
  </outline>
</glyph>
<glyph name="three" format="1">
  <advance width="720"/>
  <unicode hex="0033"/>
  <outline>
    <contour>
      <point x="355" y="-10" type="curve" smooth="yes"/>
      <point x="531" y="-10"/>
      <point x="642" y="67"/>
      <point x="642" y="190" type="curve" smooth="yes"/>
      <point x="642" y="273"/>
      <point x="594" y="329"/>
      <point x="516" y="340" type="curve"/>
      <point x="516" y="364" type="line"/>
      <point x="591" y="375"/>
      <point x="638" y="429"/>
      <point x="638" y="507" type="curve" smooth="yes"/>
      <point x="638" y="626"/>
      <point x="529" y="700"/>
      <point x="355" y="700" type="curve" smooth="yes"/>
      <point x="184" y="700"/>
      <point x="92" y="624"/>
      <point x="69" y="459" type="curve"/>
      <point x="136" y="459" type="line"/>
      <point x="136" y="460" type="line" smooth="yes"/>
      <point x="136" y="579"/>
      <point x="212" y="643"/>
      <point x="355" y="643" type="curve" smooth="yes"/>
      <point x="487" y="643"/>
      <point x="570" y="591"/>
      <point x="570" y="508" type="curve" smooth="yes"/>
      <point x="570" y="506" type="line" smooth="yes"/>
      <point x="570" y="423"/>
      <point x="523" y="378"/>
      <point x="435" y="378" type="curve" smooth="yes"/>
      <point x="248" y="378" type="line"/>
      <point x="248" y="326" type="line"/>
      <point x="437" y="326" type="line" smooth="yes"/>
      <point x="526" y="326"/>
      <point x="574" y="279"/>
      <point x="574" y="191" type="curve" smooth="yes"/>
      <point x="574" y="189" type="line" smooth="yes"/>
      <point x="574" y="102"/>
      <point x="490" y="47"/>
      <point x="355" y="47" type="curve" smooth="yes"/>
      <point x="210" y="47"/>
      <point x="132" y="111"/>
      <point x="132" y="229" type="curve" smooth="yes"/>
      <point x="132" y="231" type="line"/>
      <point x="65" y="231" type="line"/>
      <point x="89" y="66"/>
      <point x="181" y="-10"/>
    </contour>
  </outline>
</glyph>
<glyph name="four" format="1">
  <advance width="685"/>
  <unicode hex="0034"/>
  <outline>
    <contour>
      <point x="56" y="186" type="line"/>
      <point x="648" y="186" type="line"/>
      <point x="648" y="240" type="line"/>
      <point x="124" y="240" type="line"/>
      <point x="357" y="690" type="line"/>
      <point x="289" y="690" type="line"/>
      <point x="56" y="240" type="line"/>
    </contour>
    <contour>
      <point x="424" y="0" type="line"/>
      <point x="490" y="0" type="line"/>
      <point x="490" y="424" type="line"/>
      <point x="450" y="424" type="line"/>
      <point x="424" y="312" type="line"/>
    </contour>
  </outline>
</glyph>
<glyph name="seven" format="1">
  <advance width="644"/>
  <unicode hex="0037"/>
  <outline>
    <contour>
      <point x="193" y="0" type="line"/>
      <point x="267" y="0" type="line"/>
      <point x="602" y="636" type="line"/>
      <point x="602" y="690" type="line"/>
      <point x="52" y="690" type="line"/>
      <point x="52" y="494" type="line"/>
      <point x="110" y="494" type="line"/>
      <point x="110" y="636" type="line"/>
      <point x="529" y="636" type="line"/>
    </contour>
  </outline>
</glyph>
<glyph name="nine" format="1">
  <advance width="730"/>
  <unicode hex="0039"/>
  <outline>
    <contour>
      <point x="356" y="700" type="curve" smooth="yes"/>
      <point x="172" y="700"/>
      <point x="68" y="615"/>
      <point x="68" y="469" type="curve" smooth="yes"/>
      <point x="68" y="326"/>
      <point x="172" y="239"/>
      <point x="343" y="239" type="curve" smooth="yes"/>
      <point x="449" y="239"/>
      <point x="517" y="271"/>
      <point x="562" y="347" type="curve"/>
      <point x="586" y="347" type="line"/>
      <point x="582" y="308"/>
      <point x="580" y="280"/>
      <point x="580" y="257" type="curve" smooth="yes"/>
      <point x="580" y="257" type="line" smooth="yes"/>
      <point x="580" y="124"/>
      <point x="499" y="47"/>
      <point x="358" y="47" type="curve" smooth="yes"/>
      <point x="226" y="47"/>
      <point x="156" y="118"/>
      <point x="156" y="184" type="curve" smooth="yes"/>
      <point x="156" y="184" type="line"/>
      <point x="86" y="184" type="line"/>
      <point x="119" y="51"/>
      <point x="207" y="-10"/>
      <point x="358" y="-10" type="curve" smooth="yes"/>
      <point x="562" y="-10"/>
      <point x="654" y="101"/>
      <point x="654" y="345" type="curve" smooth="yes"/>
      <point x="654" y="591"/>
      <point x="563" y="700"/>
    </contour>
    <contour>
      <point x="354" y="643" type="curve" smooth="yes"/>
      <point x="489" y="643"/>
      <point x="568" y="579"/>
      <point x="568" y="470" type="curve" smooth="yes"/>
      <point x="568" y="468" type="line" smooth="yes"/>
      <point x="568" y="359"/>
      <point x="489" y="295"/>
      <point x="354" y="295" type="curve" smooth="yes"/>
      <point x="212" y="295"/>
      <point x="136" y="355"/>
      <point x="136" y="468" type="curve" smooth="yes"/>
      <point x="136" y="470" type="line" smooth="yes"/>
      <point x="136" y="583"/>
      <point x="212" y="643"/>
    </contour>
  </outline>
</glyph>
<glyph name="greater" format="1">
  <advance width="532"/>
  <unicode hex="003E"/>
  <outline>
    <contour>
      <point x="48" y="109" type="line"/>
      <point x="492" y="297" type="line"/>
      <point x="492" y="377" type="line"/>
      <point x="48" y="565" type="line"/>
      <point x="48" y="508" type="line"/>
      <point x="434" y="349" type="line"/>
      <point x="434" y="325" type="line"/>
      <point x="48" y="166" type="line"/>
    </contour>
  </outline>
</glyph>
<glyph name="A" format="1">
  <advance width="754"/>
  <unicode hex="0041"/>
  <outline>
    <contour>
      <point x="42" y="0" type="line"/>
      <point x="112" y="0" type="line"/>
      <point x="367" y="632" type="line"/>
      <point x="391" y="632" type="line"/>
      <point x="646" y="0" type="line"/>
      <point x="718" y="0" type="line"/>
      <point x="438" y="690" type="line"/>
      <point x="322" y="690" type="line"/>
    </contour>
    <contour>
      <point x="161" y="187" type="line"/>
      <point x="600" y="187" type="line"/>
      <point x="580" y="239" type="line"/>
      <point x="181" y="239" type="line"/>
    </contour>
    <contour>
      <point x="188" y="636" type="line"/>
      <point x="347" y="636" type="line"/>
      <point x="347" y="690" type="line"/>
      <point x="188" y="690" type="line"/>
    </contour>
    <contour>
      <point x="718" y="0" type="move" name="ogonek"/>
    </contour>
    <contour>
      <point x="377" y="690" type="move" name="top"/>
    </contour>
  </outline>
</glyph>
<glyph name="B" format="1">
  <advance width="748"/>
  <unicode hex="0042"/>
  <outline>
    <contour>
      <point x="131" y="0" type="line"/>
      <point x="474" y="0" type="line" smooth="yes"/>
      <point x="596" y="0"/>
      <point x="673" y="73"/>
      <point x="673" y="190" type="curve" smooth="yes"/>
      <point x="673" y="277"/>
      <point x="629" y="329"/>
      <point x="547" y="340" type="curve"/>
      <point x="547" y="364" type="line"/>
      <point x="624" y="375"/>
      <point x="665" y="425"/>
      <point x="665" y="507" type="curve" smooth="yes"/>
      <point x="665" y="619"/>
      <point x="591" y="690"/>
      <point x="472" y="690" type="curve" smooth="yes"/>
      <point x="19" y="690" type="line"/>
      <point x="19" y="636" type="line"/>
      <point x="131" y="636" type="line"/>
    </contour>
    <contour>
      <point x="468" y="54" type="curve" smooth="yes"/>
      <point x="197" y="54" type="line"/>
      <point x="197" y="326" type="line"/>
      <point x="468" y="326" type="line" smooth="yes"/>
      <point x="557" y="326"/>
      <point x="605" y="279"/>
      <point x="605" y="191" type="curve" smooth="yes"/>
      <point x="605" y="189" type="line" smooth="yes"/>
      <point x="605" y="101"/>
      <point x="557" y="54"/>
    </contour>
    <contour>
      <point x="466" y="378" type="curve" smooth="yes"/>
      <point x="197" y="378" type="line"/>
      <point x="197" y="636" type="line"/>
      <point x="466" y="636" type="line" smooth="yes"/>
      <point x="551" y="636"/>
      <point x="597" y="591"/>
      <point x="597" y="508" type="curve" smooth="yes"/>
      <point x="597" y="506" type="line" smooth="yes"/>
      <point x="597" y="423"/>
      <point x="551" y="378"/>
    </contour>
  </outline>
</glyph>
<glyph name="C" format="1">
  <advance width="802"/>
  <unicode hex="0043"/>
  <outline>
    <contour>
      <point x="407" y="-10" type="curve" smooth="yes"/>
      <point x="586" y="-10"/>
      <point x="705" y="86"/>
      <point x="734" y="245" type="curve"/>
      <point x="664" y="245" type="line"/>
      <point x="664" y="245" type="line"/>
      <point x="664" y="146"/>
      <point x="585" y="48"/>
      <point x="407" y="48" type="curve" smooth="yes"/>
      <point x="226" y="48"/>
      <point x="139" y="144"/>
      <point x="139" y="344" type="curve" smooth="yes"/>
      <point x="139" y="346" type="line" smooth="yes"/>
      <point x="139" y="546"/>
      <point x="226" y="642"/>
      <point x="407" y="642" type="curve" smooth="yes"/>
      <point x="585" y="642"/>
      <point x="664" y="547"/>
      <point x="664" y="453" type="curve"/>
      <point x="664" y="453" type="line"/>
      <point x="733" y="453" type="line"/>
      <point x="701" y="608"/>
      <point x="583" y="700"/>
      <point x="407" y="700" type="curve" smooth="yes"/>
      <point x="199" y="700"/>
      <point x="69" y="564"/>
      <point x="69" y="345" type="curve" smooth="yes"/>
      <point x="69" y="126"/>
      <point x="199" y="-10"/>
    </contour>
    <contour>
      <point x="407" y="0" type="move" name="bottom"/>
    </contour>
    <contour>
      <point x="407" y="690" type="move" name="top"/>
    </contour>
  </outline>
</glyph>
<glyph name="D" format="1">
  <advance width="820"/>
  <unicode hex="0044"/>
  <outline>
    <contour>
      <point x="130" y="0" type="line"/>
      <point x="414" y="0" type="line" smooth="yes"/>
      <point x="631" y="0"/>
      <point x="750" y="122"/>
      <point x="750" y="345" type="curve" smooth="yes"/>
      <point x="750" y="568"/>
      <point x="631" y="690"/>
      <point x="414" y="690" type="curve" smooth="yes"/>
      <point x="18" y="690" type="line"/>
      <point x="18" y="636" type="line"/>
      <point x="130" y="636" type="line"/>
    </contour>
    <contour>
      <point x="408" y="54" type="curve" smooth="yes"/>
      <point x="196" y="54" type="line"/>
      <point x="196" y="636" type="line"/>
      <point x="408" y="636" type="line" smooth="yes"/>
      <point x="591" y="636"/>
      <point x="680" y="546"/>
      <point x="680" y="346" type="curve" smooth="yes"/>
      <point x="680" y="344" type="line" smooth="yes"/>
      <point x="680" y="144"/>
      <point x="591" y="54"/>
    </contour>
  </outline>
</glyph>
<glyph name="F" format="1">
  <advance width="696"/>
  <unicode hex="0046"/>
  <outline>
    <contour>
      <point x="128" y="0" type="line"/>
      <point x="194" y="0" type="line"/>
      <point x="194" y="326" type="line"/>
      <point x="528" y="326" type="line"/>
      <point x="528" y="378" type="line"/>
      <point x="194" y="378" type="line"/>
      <point x="194" y="636" type="line"/>
      <point x="584" y="636" type="line"/>
      <point x="584" y="494" type="line"/>
      <point x="642" y="494" type="line"/>
      <point x="642" y="690" type="line"/>
      <point x="16" y="690" type="line"/>
      <point x="16" y="636" type="line"/>
      <point x="128" y="636" type="line"/>
    </contour>
  </outline>
</glyph>
<glyph name="H" format="1">
  <advance width="806"/>
  <unicode hex="0048"/>
  <outline>
    <contour>
      <point x="620" y="0" type="line"/>
      <point x="686" y="0" type="line"/>
      <point x="686" y="690" type="line"/>
      <point x="620" y="690" type="line"/>
    </contour>
    <contour>
      <point x="130" y="0" type="line"/>
      <point x="196" y="0" type="line"/>
      <point x="196" y="690" type="line"/>
      <point x="18" y="690" type="line"/>
      <point x="18" y="636" type="line"/>
      <point x="130" y="636" type="line"/>
    </contour>
    <contour>
      <point x="163" y="326" type="line"/>
      <point x="652" y="326" type="line"/>
      <point x="652" y="378" type="line"/>
      <point x="163" y="378" type="line"/>
    </contour>
  </outline>
</glyph>
<glyph name="J" format="1">
  <advance width="694"/>
  <unicode hex="004A"/>
  <outline>
    <contour>
      <point x="314" y="-10" type="curve" smooth="yes"/>
      <point x="495" y="-10"/>
      <point x="584" y="83"/>
      <point x="584" y="272" type="curve" smooth="yes"/>
      <point x="584" y="690" type="line"/>
      <point x="200" y="690" type="line"/>
      <point x="200" y="636" type="line"/>
      <point x="518" y="636" type="line"/>
      <point x="518" y="272" type="line" smooth="yes"/>
      <point x="518" y="112"/>
      <point x="460" y="48"/>
      <point x="314" y="48" type="curve" smooth="yes"/>
      <point x="168" y="48"/>
      <point x="110" y="112"/>
      <point x="110" y="265" type="curve" smooth="yes"/>
      <point x="110" y="285" type="line"/>
      <point x="44" y="285" type="line"/>
      <point x="44" y="265" type="line" smooth="yes"/>
      <point x="44" y="83"/>
      <point x="133" y="-10"/>
    </contour>
    <contour>
      <point x="412" y="690" type="move" name="top"/>
    </contour>
  </outline>
</glyph>
<glyph name="K" format="1">
  <advance width="752"/>
  <unicode hex="004B"/>
  <outline>
    <contour>
      <point x="132" y="0" type="line"/>
      <point x="198" y="0" type="line"/>
      <point x="198" y="328" type="line"/>
      <point x="310" y="328" type="line"/>
      <point x="587" y="0" type="line"/>
      <point x="740" y="0" type="line"/>
      <point x="740" y="54" type="line"/>
      <point x="628" y="54" type="line"/>
      <point x="349" y="382" type="line"/>
      <point x="356" y="337" type="line"/>
      <point x="708" y="690" type="line"/>
      <point x="617" y="690" type="line"/>
      <point x="310" y="380" type="line"/>
      <point x="198" y="380" type="line"/>
      <point x="198" y="690" type="line"/>
      <point x="20" y="690" type="line"/>
      <point x="20" y="636" type="line"/>
      <point x="132" y="636" type="line"/>
    </contour>
  </outline>
</glyph>
<glyph name="N" format="1">
  <advance width="810"/>
  <unicode hex="004E"/>
  <outline>
    <contour>
      <point x="130" y="0" type="line"/>
      <point x="194" y="0" type="line"/>
      <point x="194" y="492" type="line" smooth="yes"/>
      <point x="194" y="523"/>
      <point x="191" y="555"/>
      <point x="184" y="618" type="curve"/>
      <point x="208" y="618" type="line"/>
      <point x="628" y="0" type="line"/>
      <point x="690" y="0" type="line"/>
      <point x="690" y="690" type="line"/>
      <point x="626" y="690" type="line"/>
      <point x="626" y="256" type="line" smooth="yes"/>
      <point x="626" y="225"/>
      <point x="629" y="193"/>
      <point x="636" y="130" type="curve"/>
      <point x="612" y="130" type="line"/>
      <point x="232" y="690" type="line"/>
      <point x="18" y="690" type="line"/>
      <point x="18" y="636" type="line"/>
      <point x="130" y="636" type="line"/>
    </contour>
    <contour>
      <point x="410" y="690" type="move" name="top"/>
    </contour>
  </outline>
</glyph>
<glyph name="P" format="1">
  <advance width="722"/>
  <unicode hex="0050"/>
  <outline>
    <contour>
      <point x="131" y="0" type="line"/>
      <point x="197" y="0" type="line"/>
      <point x="197" y="296" type="line"/>
      <point x="462" y="296" type="line" smooth="yes"/>
      <point x="589" y="296"/>
      <point x="669" y="372"/>
      <point x="669" y="492" type="curve" smooth="yes"/>
      <point x="669" y="614"/>
      <point x="589" y="690"/>
      <point x="462" y="690" type="curve" smooth="yes"/>
      <point x="19" y="690" type="line"/>
      <point x="19" y="636" type="line"/>
      <point x="131" y="636" type="line"/>
    </contour>
    <contour>
      <point x="456" y="348" type="curve" smooth="yes"/>
      <point x="197" y="348" type="line"/>
      <point x="197" y="636" type="line"/>
      <point x="456" y="636" type="line" smooth="yes"/>
      <point x="550" y="636"/>
      <point x="601" y="586"/>
      <point x="601" y="493" type="curve" smooth="yes"/>
      <point x="601" y="491" type="line" smooth="yes"/>
      <point x="601" y="398"/>
      <point x="550" y="348"/>
    </contour>
  </outline>
</glyph>
<glyph name="R" format="1">
  <advance width="774"/>
  <unicode hex="0052"/>
  <outline>
    <contour>
      <point x="130" y="0" type="line"/>
      <point x="196" y="0" type="line"/>
      <point x="196" y="316" type="line"/>
      <point x="441" y="316" type="line" smooth="yes"/>
      <point x="529" y="316"/>
      <point x="576" y="270"/>
      <point x="576" y="183" type="curve" smooth="yes"/>
      <point x="576" y="0" type="line"/>
      <point x="750" y="0" type="line"/>
      <point x="750" y="54" type="line"/>
      <point x="642" y="54" type="line"/>
      <point x="642" y="183" type="line" smooth="yes"/>
      <point x="642" y="267"/>
      <point x="605" y="318"/>
      <point x="536" y="328" type="curve"/>
      <point x="536" y="352" type="line"/>
      <point x="623" y="364"/>
      <point x="668" y="416"/>
      <point x="668" y="502" type="curve" smooth="yes"/>
      <point x="668" y="617"/>
      <point x="592" y="690"/>
      <point x="471" y="690" type="curve" smooth="yes"/>
      <point x="18" y="690" type="line"/>
      <point x="18" y="636" type="line"/>
      <point x="130" y="636" type="line"/>
    </contour>
    <contour>
      <point x="465" y="368" type="curve" smooth="yes"/>
      <point x="196" y="368" type="line"/>
      <point x="196" y="636" type="line"/>
      <point x="465" y="636" type="line" smooth="yes"/>
      <point x="553" y="636"/>
      <point x="600" y="590"/>
      <point x="600" y="503" type="curve" smooth="yes"/>
      <point x="600" y="501" type="line" smooth="yes"/>
      <point x="600" y="414"/>
      <point x="553" y="368"/>
    </contour>
  </outline>
</glyph>
<glyph name="U" format="1">
  <advance width="824"/>
  <unicode hex="0055"/>
  <outline>
    <contour>
      <point x="380" y="-10" type="curve" smooth="yes"/>
      <point x="496" y="-10"/>
      <point x="569" y="26"/>
      <point x="615" y="104" type="curve"/>
      <point x="639" y="104" type="line"/>
      <point x="639" y="48" type="line" smooth="yes"/>
      <point x="639" y="17"/>
      <point x="656" y="0"/>
      <point x="687" y="0" type="curve" smooth="yes"/>
      <point x="805" y="0" type="line"/>
      <point x="805" y="54" type="line"/>
      <point x="693" y="54" type="line"/>
      <point x="693" y="690" type="line"/>
      <point x="627" y="690" type="line"/>
      <point x="627" y="276" type="line" smooth="yes"/>
      <point x="627" y="119"/>
      <point x="558" y="48"/>
      <point x="407" y="48" type="curve" smooth="yes"/>
      <point x="256" y="48"/>
      <point x="187" y="119"/>
      <point x="187" y="276" type="curve" smooth="yes"/>
      <point x="187" y="690" type="line"/>
      <point x="9" y="690" type="line"/>
      <point x="9" y="636" type="line"/>
      <point x="121" y="636" type="line"/>
      <point x="121" y="260" type="line" smooth="yes"/>
      <point x="121" y="84"/>
      <point x="211" y="-10"/>
    </contour>
    <contour>
      <point x="407" y="690" type="move" name="top"/>
    </contour>
  </outline>
</glyph>
<glyph name="V" format="1">
  <advance width="746"/>
  <unicode hex="0056"/>
  <outline>
    <contour>
      <point x="315" y="0" type="line"/>
      <point x="431" y="0" type="line"/>
      <point x="711" y="690" type="line"/>
      <point x="641" y="690" type="line"/>
      <point x="386" y="58" type="line"/>
      <point x="362" y="58" type="line"/>
      <point x="107" y="690" type="line"/>
      <point x="35" y="690" type="line"/>
    </contour>
  </outline>
</glyph>
<glyph name="W" format="1">
  <advance width="1131"/>
  <unicode hex="0057"/>
  <outline>
    <contour>
      <point x="263" y="0" type="line"/>
      <point x="374" y="0" type="line"/>
      <point x="553" y="572" type="line"/>
      <point x="577" y="572" type="line"/>
      <point x="756" y="0" type="line"/>
      <point x="867" y="0" type="line"/>
      <point x="1089" y="690" type="line"/>
      <point x="1021" y="690" type="line"/>
      <point x="822" y="58" type="line"/>
      <point x="798" y="58" type="line"/>
      <point x="597" y="690" type="line"/>
      <point x="535" y="690" type="line"/>
      <point x="334" y="58" type="line"/>
      <point x="310" y="58" type="line"/>
      <point x="111" y="690" type="line"/>
      <point x="41" y="690" type="line"/>
    </contour>
  </outline>
</glyph>
<glyph name="X" format="1">
  <advance width="790"/>
  <unicode hex="0058"/>
  <outline>
    <contour>
      <point x="39" y="0" type="line"/>
      <point x="194" y="0" type="line"/>
      <point x="382" y="325" type="line"/>
      <point x="406" y="325" type="line"/>
      <point x="594" y="0" type="line"/>
      <point x="751" y="0" type="line"/>
      <point x="751" y="54" type="line"/>
      <point x="639" y="54" type="line"/>
      <point x="452" y="376" type="line"/>
      <point x="453" y="337" type="line"/>
      <point x="631" y="636" type="line"/>
      <point x="743" y="636" type="line"/>
      <point x="743" y="690" type="line"/>
      <point x="588" y="690" type="line"/>
      <point x="408" y="383" type="line"/>
      <point x="384" y="383" type="line"/>
      <point x="204" y="690" type="line"/>
      <point x="47" y="690" type="line"/>
      <point x="47" y="636" type="line"/>
      <point x="159" y="636" type="line"/>
      <point x="337" y="337" type="line"/>
      <point x="338" y="376" type="line"/>
      <point x="151" y="54" type="line"/>
      <point x="39" y="54" type="line"/>
    </contour>
  </outline>
</glyph>
<glyph name="bracketleft" format="1">
  <advance width="385"/>
  <unicode hex="005B"/>
  <outline>
    <contour>
      <point x="114" y="-92" type="line"/>
      <point x="342" y="-92" type="line"/>
      <point x="342" y="-40" type="line"/>
      <point x="176" y="-40" type="line"/>
      <point x="176" y="730" type="line"/>
      <point x="342" y="730" type="line"/>
      <point x="342" y="782" type="line"/>
      <point x="114" y="782" type="line"/>
    </contour>
  </outline>
</glyph>
<glyph name="asciicircum" format="1">
  <advance width="532"/>
  <unicode hex="005E"/>
  <outline>
    <contour>
      <point x="62" y="410" type="line"/>
      <point x="131" y="410" type="line"/>
      <point x="254" y="634" type="line"/>
      <point x="278" y="634" type="line"/>
      <point x="400" y="410" type="line"/>
      <point x="470" y="410" type="line"/>
      <point x="308" y="690" type="line"/>
      <point x="223" y="690" type="line"/>
    </contour>
  </outline>
</glyph>
<glyph name="underscore" format="1">
  <advance width="589"/>
  <unicode hex="005F"/>
  <outline>
    <contour>
      <point x="54" y="-92" type="line"/>
      <point x="534" y="-92" type="line"/>
      <point x="534" y="-40" type="line"/>
      <point x="54" y="-40" type="line"/>
    </contour>
  </outline>
</glyph>
<glyph name="a" format="1">
  <advance width="644"/>
  <unicode hex="0061"/>
  <outline>
    <contour>
      <point x="266" y="-10" type="curve" smooth="yes"/>
      <point x="365" y="-10"/>
      <point x="423" y="21"/>
      <point x="462" y="88" type="curve"/>
      <point x="486" y="88" type="line"/>
      <point x="486" y="48" type="line" smooth="yes"/>
      <point x="486" y="17"/>
      <point x="503" y="0"/>
      <point x="534" y="0" type="curve" smooth="yes"/>
      <point x="634" y="0" type="line"/>
      <point x="634" y="52" type="line"/>
      <point x="538" y="52" type="line"/>
      <point x="538" y="335" type="line" smooth="yes"/>
      <point x="538" y="471"/>
      <point x="461" y="544"/>
      <point x="315" y="544" type="curve" smooth="yes"/>
      <point x="182" y="544"/>
      <point x="100" y="483"/>
      <point x="78" y="373" type="curve"/>
      <point x="147" y="373" type="line"/>
      <point x="147" y="373" type="line"/>
      <point x="147" y="427"/>
      <point x="192" y="488"/>
      <point x="313" y="488" type="curve" smooth="yes"/>
      <point x="425" y="488"/>
      <point x="474" y="439"/>
      <point x="474" y="331" type="curve" smooth="yes"/>
      <point x="474" y="290" type="line"/>
      <point x="474" y="277" type="line"/>
      <point x="474" y="193" type="line" smooth="yes"/>
      <point x="474" y="97"/>
      <point x="409" y="46"/>
      <point x="285" y="46" type="curve" smooth="yes"/>
      <point x="182" y="46"/>
      <point x="128" y="80"/>
      <point x="128" y="144" type="curve" smooth="yes"/>
      <point x="128" y="145" type="line" smooth="yes"/>
      <point x="128" y="207"/>
      <point x="183" y="239"/>
      <point x="298" y="249" type="curve" smooth="yes"/>
      <point x="474" y="264" type="line"/>
      <point x="474" y="312" type="line"/>
      <point x="280" y="295" type="line" smooth="yes"/>
      <point x="140" y="283"/>
      <point x="62" y="228"/>
      <point x="62" y="136" type="curve" smooth="yes"/>
      <point x="62" y="44"/>
      <point x="138" y="-10"/>
    </contour>
    <contour>
      <point x="634" y="0" type="move" name="ogonek"/>
    </contour>
    <contour>
      <point x="316" y="534" type="move" name="top"/>
    </contour>
  </outline>
</glyph>
<glyph name="d" format="1">
  <advance width="712"/>
  <unicode hex="0064"/>
  <outline>
    <contour>
      <point x="323" y="-10" type="curve" smooth="yes"/>
      <point x="413" y="-10"/>
      <point x="475" y="26"/>
      <point x="522" y="104" type="curve"/>
      <point x="546" y="104" type="line"/>
      <point x="546" y="48" type="line" smooth="yes"/>
      <point x="546" y="17"/>
      <point x="563" y="0"/>
      <point x="594" y="0" type="curve" smooth="yes"/>
      <point x="694" y="0" type="line"/>
      <point x="694" y="52" type="line"/>
      <point x="598" y="52" type="line"/>
      <point x="598" y="690" type="line"/>
      <point x="420" y="690" type="line"/>
      <point x="420" y="638" type="line"/>
      <point x="534" y="638" type="line"/>
      <point x="534" y="560" type="line" smooth="yes"/>
      <point x="534" y="529"/>
      <point x="537" y="497"/>
      <point x="544" y="434" type="curve"/>
      <point x="520" y="434" type="line"/>
      <point x="474" y="510"/>
      <point x="413" y="544"/>
      <point x="323" y="544" type="curve" smooth="yes"/>
      <point x="165" y="544"/>
      <point x="66" y="437"/>
      <point x="66" y="267" type="curve" smooth="yes"/>
      <point x="66" y="97"/>
      <point x="165" y="-10"/>
    </contour>
    <contour>
      <point x="334" y="46" type="curve" smooth="yes"/>
      <point x="198" y="46"/>
      <point x="134" y="117"/>
      <point x="134" y="266" type="curve" smooth="yes"/>
      <point x="134" y="268" type="line" smooth="yes"/>
      <point x="134" y="417"/>
      <point x="198" y="488"/>
      <point x="334" y="488" type="curve" smooth="yes"/>
      <point x="470" y="488"/>
      <point x="534" y="417"/>
      <point x="534" y="268" type="curve" smooth="yes"/>
      <point x="534" y="266" type="line" smooth="yes"/>
      <point x="534" y="117"/>
      <point x="470" y="46"/>
    </contour>
  </outline>
</glyph>
<glyph name="g" format="1">
  <advance width="635"/>
  <unicode hex="0067"/>
  <outline>
    <contour>
      <point x="66" y="-132" type="line"/>
      <point x="450" y="-132" type="line" smooth="yes"/>
      <point x="539" y="-132"/>
      <point x="586" y="-93"/>
      <point x="586" y="-20" type="curve" smooth="yes"/>
      <point x="586" y="50"/>
      <point x="541" y="88"/>
      <point x="458" y="88" type="curve" smooth="yes"/>
      <point x="199" y="88" type="line" smooth="yes"/>
      <point x="150" y="88"/>
      <point x="132" y="100"/>
      <point x="132" y="131" type="curve" smooth="yes"/>
      <point x="132" y="162"/>
      <point x="150" y="174"/>
      <point x="199" y="174" type="curve" smooth="yes"/>
      <point x="308" y="174" type="line" smooth="yes"/>
      <point x="457" y="174"/>
      <point x="550" y="243"/>
      <point x="550" y="357" type="curve" smooth="yes"/>
      <point x="550" y="474"/>
      <point x="457" y="544"/>
      <point x="308" y="544" type="curve" smooth="yes"/>
      <point x="159" y="544"/>
      <point x="66" y="474"/>
      <point x="66" y="357" type="curve" smooth="yes"/>
      <point x="66" y="294"/>
      <point x="92" y="244"/>
      <point x="151" y="211" type="curve"/>
      <point x="151" y="191" type="line"/>
      <point x="98" y="181"/>
      <point x="70" y="153"/>
      <point x="70" y="111" type="curve" smooth="yes"/>
      <point x="70" y="60"/>
      <point x="108" y="32"/>
      <point x="179" y="32" type="curve" smooth="yes"/>
      <point x="442" y="32" type="line" smooth="yes"/>
      <point x="499" y="32"/>
      <point x="520" y="17"/>
      <point x="520" y="-24" type="curve" smooth="yes"/>
      <point x="520" y="-65"/>
      <point x="499" y="-80"/>
      <point x="442" y="-80" type="curve" smooth="yes"/>
      <point x="66" y="-80" type="line"/>
    </contour>
    <contour>
      <point x="308" y="227" type="curve" smooth="yes"/>
      <point x="193" y="227"/>
      <point x="132" y="270"/>
      <point x="132" y="357" type="curve" smooth="yes"/>
      <point x="132" y="359" type="line" smooth="yes"/>
      <point x="132" y="446"/>
      <point x="193" y="489"/>
      <point x="308" y="489" type="curve" smooth="yes"/>
      <point x="423" y="489"/>
      <point x="484" y="446"/>
      <point x="484" y="359" type="curve" smooth="yes"/>
      <point x="484" y="357" type="line" smooth="yes"/>
      <point x="484" y="270"/>
      <point x="423" y="227"/>
    </contour>
    <contour>
      <point x="416" y="508" type="curve"/>
      <point x="435" y="489" type="line"/>
      <point x="435" y="520"/>
      <point x="447" y="534"/>
      <point x="473" y="534" type="curve" smooth="yes"/>
      <point x="582" y="534" type="line"/>
      <point x="582" y="586" type="line"/>
      <point x="496" y="586" type="line" smooth="yes"/>
      <point x="441" y="586"/>
      <point x="416" y="562"/>
    </contour>
  </outline>
</glyph>
<glyph name="l" format="1">
  <advance width="306"/>
  <unicode hex="006C"/>
  <outline>
    <contour>
      <point x="121" y="0" type="line"/>
      <point x="185" y="0" type="line"/>
      <point x="185" y="690" type="line"/>
      <point x="7" y="690" type="line"/>
      <point x="7" y="638" type="line"/>
      <point x="121" y="638" type="line"/>
    </contour>
  </outline>
</glyph>
<glyph name="m" format="1">
  <advance width="1040"/>
  <unicode hex="006D"/>
  <outline>
    <contour>
      <point x="489" y="319" type="curve" smooth="yes"/>
      <point x="489" y="0" type="line"/>
      <point x="553" y="0" type="line"/>
      <point x="553" y="319" type="line" smooth="yes"/>
      <point x="553" y="431"/>
      <point x="603" y="488"/>
      <point x="706" y="488" type="curve" smooth="yes"/>
      <point x="809" y="488"/>
      <point x="859" y="431"/>
      <point x="859" y="319" type="curve" smooth="yes"/>
      <point x="859" y="0" type="line"/>
      <point x="1019" y="0" type="line"/>
      <point x="1019" y="52" type="line"/>
      <point x="923" y="52" type="line"/>
      <point x="923" y="325" type="line" smooth="yes"/>
      <point x="923" y="468"/>
      <point x="857" y="544"/>
      <point x="733" y="544" type="curve" smooth="yes"/>
      <point x="645" y="544"/>
      <point x="595" y="513"/>
      <point x="557" y="446" type="curve"/>
      <point x="533" y="446" type="line"/>
      <point x="497" y="513"/>
      <point x="444" y="544"/>
      <point x="363" y="544" type="curve" smooth="yes"/>
      <point x="284" y="544"/>
      <point x="231" y="513"/>
      <point x="195" y="446" type="curve"/>
      <point x="171" y="446" type="line"/>
      <point x="171" y="534" type="line"/>
      <point x="23" y="534" type="line"/>
      <point x="23" y="482" type="line"/>
      <point x="119" y="482" type="line"/>
      <point x="119" y="0" type="line"/>
      <point x="183" y="0" type="line"/>
      <point x="183" y="319" type="line" smooth="yes"/>
      <point x="183" y="431"/>
      <point x="233" y="488"/>
      <point x="336" y="488" type="curve" smooth="yes"/>
      <point x="439" y="488"/>
      <point x="489" y="431"/>
    </contour>
  </outline>
</glyph>
<glyph name="n" format="1">
  <advance width="704"/>
  <unicode hex="006E"/>
  <outline>
    <contour>
      <point x="119" y="0" type="line"/>
      <point x="183" y="0" type="line"/>
      <point x="183" y="311" type="line" smooth="yes"/>
      <point x="183" y="433"/>
      <point x="236" y="488"/>
      <point x="353" y="488" type="curve" smooth="yes"/>
      <point x="470" y="488"/>
      <point x="523" y="433"/>
      <point x="523" y="311" type="curve" smooth="yes"/>
      <point x="523" y="0" type="line"/>
      <point x="683" y="0" type="line"/>
      <point x="683" y="52" type="line"/>
      <point x="587" y="52" type="line"/>
      <point x="587" y="325" type="line" smooth="yes"/>
      <point x="587" y="468"/>
      <point x="515" y="544"/>
      <point x="380" y="544" type="curve" smooth="yes"/>
      <point x="292" y="544"/>
      <point x="234" y="513"/>
      <point x="195" y="446" type="curve"/>
      <point x="171" y="446" type="line"/>
      <point x="171" y="534" type="line"/>
      <point x="23" y="534" type="line"/>
      <point x="23" y="482" type="line"/>
      <point x="119" y="482" type="line"/>
    </contour>
    <contour>
      <point x="355" y="534" type="move" name="top"/>
    </contour>
  </outline>
</glyph>
<glyph name="o" format="1">
  <advance width="684"/>
  <unicode hex="006F"/>
  <outline>
    <contour>
      <point x="342" y="-10" type="curve" smooth="yes"/>
      <point x="512" y="-10"/>
      <point x="620" y="97"/>
      <point x="620" y="267" type="curve" smooth="yes"/>
      <point x="620" y="437"/>
      <point x="512" y="544"/>
      <point x="342" y="544" type="curve" smooth="yes"/>
      <point x="172" y="544"/>
      <point x="64" y="437"/>
      <point x="64" y="267" type="curve" smooth="yes"/>
      <point x="64" y="97"/>
      <point x="172" y="-10"/>
    </contour>
    <contour>
      <point x="342" y="46" type="curve" smooth="yes"/>
      <point x="200" y="46"/>
      <point x="132" y="117"/>
      <point x="132" y="266" type="curve" smooth="yes"/>
      <point x="132" y="268" type="line" smooth="yes"/>
      <point x="132" y="417"/>
      <point x="200" y="488"/>
      <point x="342" y="488" type="curve" smooth="yes"/>
      <point x="484" y="488"/>
      <point x="552" y="417"/>
      <point x="552" y="268" type="curve" smooth="yes"/>
      <point x="552" y="266" type="line" smooth="yes"/>
      <point x="552" y="117"/>
      <point x="484" y="46"/>
    </contour>
    <contour>
      <point x="342" y="534" type="move" name="top"/>
    </contour>
  </outline>
</glyph>
<glyph name="q" format="1">
  <advance width="701"/>
  <unicode hex="0071"/>
  <outline>
    <contour>
      <point x="532" y="-26" type="curve" smooth="yes"/>
      <point x="532" y="-132" type="line"/>
      <point x="692" y="-132" type="line"/>
      <point x="692" y="-78" type="line"/>
      <point x="596" y="-78" type="line"/>
      <point x="596" y="534" type="line"/>
      <point x="544" y="534" type="line"/>
      <point x="544" y="430" type="line"/>
      <point x="520" y="430" type="line"/>
      <point x="473" y="508"/>
      <point x="411" y="544"/>
      <point x="321" y="544" type="curve" smooth="yes"/>
      <point x="163" y="544"/>
      <point x="64" y="437"/>
      <point x="64" y="267" type="curve" smooth="yes"/>
      <point x="64" y="97"/>
      <point x="163" y="-10"/>
      <point x="321" y="-10" type="curve" smooth="yes"/>
      <point x="411" y="-10"/>
      <point x="472" y="24"/>
      <point x="518" y="100" type="curve"/>
      <point x="542" y="100" type="line"/>
      <point x="535" y="37"/>
      <point x="532" y="5"/>
    </contour>
    <contour>
      <point x="332" y="46" type="curve" smooth="yes"/>
      <point x="196" y="46"/>
      <point x="132" y="117"/>
      <point x="132" y="266" type="curve" smooth="yes"/>
      <point x="132" y="268" type="line" smooth="yes"/>
      <point x="132" y="417"/>
      <point x="196" y="488"/>
      <point x="332" y="488" type="curve" smooth="yes"/>
      <point x="468" y="488"/>
      <point x="532" y="417"/>
      <point x="532" y="268" type="curve" smooth="yes"/>
      <point x="532" y="266" type="line" smooth="yes"/>
      <point x="532" y="117"/>
      <point x="468" y="46"/>
    </contour>
  </outline>
</glyph>
<glyph name="r" format="1">
  <advance width="524"/>
  <unicode hex="0072"/>
  <outline>
    <contour>
      <point x="119" y="0" type="line"/>
      <point x="183" y="0" type="line"/>
      <point x="183" y="305" type="line" smooth="yes"/>
      <point x="183" y="427"/>
      <point x="236" y="482"/>
      <point x="353" y="482" type="curve" smooth="yes"/>
      <point x="485" y="482" type="line"/>
      <point x="485" y="538" type="line"/>
      <point x="376" y="538" type="line" smooth="yes"/>
      <point x="288" y="538"/>
      <point x="234" y="507"/>
      <point x="195" y="440" type="curve"/>
      <point x="171" y="440" type="line"/>
      <point x="171" y="534" type="line"/>
      <point x="23" y="534" type="line"/>
      <point x="23" y="482" type="line"/>
      <point x="119" y="482" type="line"/>
    </contour>
  </outline>
</glyph>
<glyph name="t" format="1">
  <advance width="430"/>
  <unicode hex="0074"/>
  <outline>
    <contour>
      <point x="200" y="0" type="curve" smooth="yes"/>
      <point x="388" y="0" type="line"/>
      <point x="388" y="52" type="line"/>
      <point x="216" y="52" type="line"/>
      <point x="216" y="646" type="line"/>
      <point x="178" y="646" type="line"/>
      <point x="152" y="534" type="line"/>
      <point x="152" y="48" type="line" smooth="yes"/>
      <point x="152" y="17"/>
      <point x="169" y="0"/>
    </contour>
    <contour>
      <point x="20" y="482" type="line"/>
      <point x="388" y="482" type="line"/>
      <point x="388" y="534" type="line"/>
      <point x="20" y="534" type="line"/>
    </contour>
  </outline>
</glyph>
<glyph name="x" format="1">
  <advance width="685"/>
  <unicode hex="0078"/>
  <outline>
    <contour>
      <point x="38" y="0" type="line"/>
      <point x="175" y="0" type="line"/>
      <point x="329" y="248" type="line"/>
      <point x="353" y="248" type="line"/>
      <point x="507" y="0" type="line"/>
      <point x="646" y="0" type="line"/>
      <point x="646" y="52" type="line"/>
      <point x="550" y="52" type="line"/>
      <point x="396" y="298" type="line"/>
      <point x="397" y="259" type="line"/>
      <point x="542" y="482" type="line"/>
      <point x="638" y="482" type="line"/>
      <point x="638" y="534" type="line"/>
      <point x="501" y="534" type="line"/>
      <point x="355" y="304" type="line"/>
      <point x="331" y="304" type="line"/>
      <point x="185" y="534" type="line"/>
      <point x="46" y="534" type="line"/>
      <point x="46" y="482" type="line"/>
      <point x="142" y="482" type="line"/>
      <point x="287" y="259" type="line"/>
      <point x="288" y="298" type="line"/>
      <point x="134" y="52" type="line"/>
      <point x="38" y="52" type="line"/>
    </contour>
  </outline>
</glyph>
<glyph name="y" format="1">
  <advance width="629"/>
  <unicode hex="0079"/>
  <outline>
    <contour>
      <point x="102" y="-132" type="line"/>
      <point x="268" y="-132" type="line" smooth="yes"/>
      <point x="299" y="-132"/>
      <point x="315" y="-115"/>
      <point x="328" y="-84" type="curve" smooth="yes"/>
      <point x="595" y="534" type="line"/>
      <point x="527" y="534" type="line"/>
      <point x="330" y="76" type="line"/>
      <point x="306" y="76" type="line"/>
      <point x="109" y="534" type="line"/>
      <point x="39" y="534" type="line"/>
      <point x="259" y="24" type="line"/>
      <point x="307" y="24" type="line"/>
      <point x="262" y="-80" type="line"/>
      <point x="102" y="-80" type="line"/>
    </contour>
    <contour>
      <point x="318" y="534" type="move" name="top"/>
    </contour>
  </outline>
</glyph>
<glyph name="asciitilde" format="1">
  <advance width="532"/>
  <unicode hex="007E"/>
  <outline>
    <contour>
      <point x="44" y="283" type="curve"/>
      <point x="96" y="283" type="line"/>
      <point x="96" y="322"/>
      <point x="115" y="343"/>
      <point x="150" y="343" type="curve" smooth="yes"/>
      <point x="212" y="343"/>
      <point x="305" y="279"/>
      <point x="388" y="279" type="curve" smooth="yes"/>
      <point x="453" y="279"/>
      <point x="488" y="318"/>
      <point x="488" y="391" type="curve"/>
      <point x="436" y="391" type="line"/>
      <point x="436" y="352"/>
      <point x="417" y="331"/>
      <point x="382" y="331" type="curve" smooth="yes"/>
      <point x="320" y="331"/>
      <point x="227" y="395"/>
      <point x="144" y="395" type="curve" smooth="yes"/>
      <point x="79" y="395"/>
      <point x="44" y="356"/>
    </contour>
  </outline>
</glyph>
<glyph name="cent" format="1">
  <advance width="675"/>
  <unicode hex="00A2"/>
  <outline>
    <contour>
      <point x="342" y="-5" type="curve" smooth="yes"/>
      <point x="481" y="-5"/>
      <point x="577" y="64"/>
      <point x="602" y="183" type="curve"/>
      <point x="535" y="183" type="line"/>
      <point x="535" y="183" type="line"/>
      <point x="535" y="129"/>
      <point x="479" y="50"/>
      <point x="342" y="50" type="curve" smooth="yes"/>
      <point x="209" y="50"/>
      <point x="140" y="117"/>
      <point x="140" y="266" type="curve" smooth="yes"/>
      <point x="140" y="268" type="line" smooth="yes"/>
      <point x="140" y="417"/>
      <point x="209" y="484"/>
      <point x="342" y="484" type="curve" smooth="yes"/>
      <point x="479" y="484"/>
      <point x="535" y="405"/>
      <point x="535" y="359" type="curve"/>
      <point x="535" y="359" type="line"/>
      <point x="600" y="359" type="line"/>
      <point x="573" y="473"/>
      <point x="478" y="539"/>
      <point x="342" y="539" type="curve" smooth="yes"/>
      <point x="177" y="539"/>
      <point x="72" y="439"/>
      <point x="72" y="267" type="curve" smooth="yes"/>
      <point x="72" y="95"/>
      <point x="177" y="-5"/>
    </contour>
    <contour>
      <point x="314" y="-92" type="line"/>
      <point x="370" y="-92" type="line"/>
      <point x="370" y="24" type="line"/>
      <point x="314" y="24" type="line"/>
    </contour>
    <contour>
      <point x="314" y="510" type="line"/>
      <point x="370" y="510" type="line"/>
      <point x="370" y="626" type="line"/>
      <point x="314" y="626" type="line"/>
    </contour>
  </outline>
</glyph>
<glyph name="section" format="1">
  <advance width="681"/>
  <unicode hex="00A7"/>
  <outline>
    <contour>
      <point x="352" y="-102" type="curve" smooth="yes"/>
      <point x="521" y="-102"/>
      <point x="600" y="-39"/>
      <point x="600" y="64" type="curve" smooth="yes"/>
      <point x="600" y="106"/>
      <point x="576" y="154"/>
      <point x="542" y="175" type="curve"/>
      <point x="542" y="199" type="line"/>
      <point x="587" y="221"/>
      <point x="612" y="252"/>
      <point x="612" y="296" type="curve" smooth="yes"/>
      <point x="612" y="356"/>
      <point x="566" y="405"/>
      <point x="447" y="418" type="curve" smooth="yes"/>
      <point x="278" y="436" type="line" smooth="yes"/>
      <point x="184" y="446"/>
      <point x="139" y="471"/>
      <point x="139" y="527" type="curve" smooth="yes"/>
      <point x="139" y="600"/>
      <point x="205" y="645"/>
      <point x="332" y="645" type="curve" smooth="yes"/>
      <point x="480" y="645"/>
      <point x="529" y="571"/>
      <point x="529" y="525" type="curve" smooth="yes"/>
      <point x="529" y="523" type="line"/>
      <point x="593" y="523" type="line"/>
      <point x="570" y="642"/>
      <point x="488" y="700"/>
      <point x="332" y="700" type="curve" smooth="yes"/>
      <point x="164" y="700"/>
      <point x="78" y="625"/>
      <point x="78" y="534" type="curve" smooth="yes"/>
      <point x="78" y="479"/>
      <point x="101" y="443"/>
      <point x="146" y="422" type="curve"/>
      <point x="146" y="398" type="line"/>
      <point x="101" y="376"/>
      <point x="76" y="346"/>
      <point x="76" y="301" type="curve" smooth="yes"/>
      <point x="76" y="242"/>
      <point x="122" y="192"/>
      <point x="241" y="179" type="curve" smooth="yes"/>
      <point x="410" y="161" type="line" smooth="yes"/>
      <point x="504" y="151"/>
      <point x="539" y="114"/>
      <point x="539" y="63" type="curve" smooth="yes"/>
      <point x="539" y="-8"/>
      <point x="480" y="-47"/>
      <point x="352" y="-47" type="curve" smooth="yes"/>
      <point x="189" y="-47"/>
      <point x="142" y="1"/>
      <point x="142" y="67" type="curve" smooth="yes"/>
      <point x="142" y="69" type="line"/>
      <point x="78" y="69" type="line"/>
      <point x="91" y="-70"/>
      <point x="181" y="-102"/>
    </contour>
    <contour>
      <point x="505" y="204" type="curve"/>
      <point x="267" y="233" type="line" smooth="yes"/>
      <point x="169" y="245"/>
      <point x="138" y="275"/>
      <point x="138" y="320" type="curve" smooth="yes"/>
      <point x="138" y="351"/>
      <point x="154" y="375"/>
      <point x="183" y="393" type="curve"/>
      <point x="421" y="364" type="line" smooth="yes"/>
      <point x="519" y="352"/>
      <point x="550" y="324"/>
      <point x="550" y="278" type="curve" smooth="yes"/>
      <point x="550" y="246"/>
      <point x="534" y="222"/>
    </contour>
  </outline>
</glyph>
<glyph name="ordfeminine" format="1">
  <advance width="505"/>
  <unicode hex="00AA"/>
  <note>
ordfeminine
</note>
  <outline>
    <contour>
      <point x="198" y="353" type="curve" smooth="yes"/>
      <point x="260" y="353"/>
      <point x="298" y="373"/>
      <point x="322" y="417" type="curve"/>
      <point x="340" y="417" type="line"/>
      <point x="340" y="396" type="line" smooth="yes"/>
      <point x="340" y="372"/>
      <point x="353" y="359"/>
      <point x="377" y="359" type="curve" smooth="yes"/>
      <point x="445" y="359" type="line"/>
      <point x="445" y="399" type="line"/>
      <point x="385" y="399" type="line"/>
      <point x="385" y="565" type="line" smooth="yes"/>
      <point x="385" y="650"/>
      <point x="333" y="696"/>
      <point x="236" y="696" type="curve" smooth="yes"/>
      <point x="145" y="696"/>
      <point x="91" y="659"/>
      <point x="77" y="588" type="curve"/>
      <point x="135" y="588" type="line"/>
      <point x="135" y="588" type="line"/>
      <point x="135" y="628"/>
      <point x="173" y="653"/>
      <point x="234" y="653" type="curve" smooth="yes"/>
      <point x="301" y="653"/>
      <point x="331" y="625"/>
      <point x="331" y="563" type="curve" smooth="yes"/>
      <point x="331" y="534" type="line"/>
      <point x="331" y="525" type="line"/>
      <point x="331" y="478" type="line" smooth="yes"/>
      <point x="331" y="425"/>
      <point x="291" y="395"/>
      <point x="217" y="395" type="curve" smooth="yes"/>
      <point x="156" y="395"/>
      <point x="123" y="414"/>
      <point x="123" y="450" type="curve" smooth="yes"/>
      <point x="123" y="451" type="line" smooth="yes"/>
      <point x="123" y="487"/>
      <point x="150" y="503"/>
      <point x="223" y="509" type="curve" smooth="yes"/>
      <point x="331" y="518" type="line"/>
      <point x="331" y="554" type="line"/>
      <point x="206" y="544" type="line" smooth="yes"/>
      <point x="110" y="536"/>
      <point x="67" y="506"/>
      <point x="67" y="445" type="curve" smooth="yes"/>
      <point x="67" y="387"/>
      <point x="117" y="353"/>
    </contour>
    <contour>
      <point x="235" y="690" type="move" name="top"/>
    </contour>
  </outline>
</glyph>
<glyph name="logicalnot" format="1">
  <advance width="532"/>
  <unicode hex="00AC"/>
  <outline>
    <contour>
      <point x="429" y="153" type="line"/>
      <point x="485" y="153" type="line"/>
      <point x="485" y="363" type="line"/>
      <point x="41" y="363" type="line"/>
      <point x="41" y="311" type="line"/>
      <point x="465" y="311" type="line"/>
      <point x="429" y="341" type="line"/>
    </contour>
  </outline>
</glyph>
<glyph name="twosuperior" format="1">
  <advance width="428"/>
  <unicode hex="00B2"/>
  <note>
twosuperior
</note>
  <outline>
    <contour>
      <point x="48" y="429" type="curve" smooth="yes"/>
      <point x="48" y="368" type="line"/>
      <point x="375" y="368" type="line"/>
      <point x="375" y="468" type="line"/>
      <point x="324" y="468" type="line"/>
      <point x="324" y="410" type="line"/>
      <point x="78" y="410" type="line"/>
      <point x="108" y="386" type="line"/>
      <point x="108" y="427" type="line" smooth="yes"/>
      <point x="108" y="466"/>
      <point x="125" y="480"/>
      <point x="184" y="491" type="curve" smooth="yes"/>
      <point x="265" y="506" type="line" smooth="yes"/>
      <point x="346" y="521"/>
      <point x="380" y="544"/>
      <point x="380" y="595" type="curve" smooth="yes"/>
      <point x="380" y="596" type="line" smooth="yes"/>
      <point x="380" y="656"/>
      <point x="318" y="694"/>
      <point x="216" y="694" type="curve" smooth="yes"/>
      <point x="118" y="694"/>
      <point x="62" y="657"/>
      <point x="50" y="579" type="curve"/>
      <point x="110" y="579" type="line"/>
      <point x="110" y="580" type="line" smooth="yes"/>
      <point x="110" y="624"/>
      <point x="147" y="650"/>
      <point x="216" y="650" type="curve" smooth="yes"/>
      <point x="280" y="650"/>
      <point x="319" y="631"/>
      <point x="319" y="598" type="curve" smooth="yes"/>
      <point x="319" y="597" type="line" smooth="yes"/>
      <point x="319" y="570"/>
      <point x="299" y="561"/>
      <point x="245" y="551" type="curve" smooth="yes"/>
      <point x="164" y="536" type="line" smooth="yes"/>
      <point x="83" y="521"/>
      <point x="48" y="494"/>
    </contour>
  </outline>
</glyph>
<glyph name="micro" format="1">
  <advance width="690"/>
  <unicode hex="00B5"/>
  <outline>
    <contour>
      <point x="111" y="-132" type="line"/>
      <point x="175" y="-132" type="line"/>
      <point x="175" y="-26" type="line" smooth="yes"/>
      <point x="175" y="5"/>
      <point x="172" y="37"/>
      <point x="165" y="100" type="curve"/>
      <point x="146" y="97" type="line"/>
      <point x="165" y="31"/>
      <point x="231" y="-10"/>
      <point x="318" y="-10" type="curve" smooth="yes"/>
      <point x="406" y="-10"/>
      <point x="464" y="21"/>
      <point x="503" y="88" type="curve"/>
      <point x="527" y="88" type="line"/>
      <point x="527" y="0" type="line"/>
      <point x="579" y="0" type="line"/>
      <point x="579" y="534" type="line"/>
      <point x="515" y="534" type="line"/>
      <point x="515" y="223" type="line" smooth="yes"/>
      <point x="515" y="101"/>
      <point x="462" y="46"/>
      <point x="345" y="46" type="curve" smooth="yes"/>
      <point x="228" y="46"/>
      <point x="175" y="101"/>
      <point x="175" y="223" type="curve" smooth="yes"/>
      <point x="175" y="534" type="line"/>
      <point x="111" y="534" type="line"/>
    </contour>
  </outline>
</glyph>
<glyph name="guillemetright" format="1">
  <advance width="623"/>
  <unicode hex="00BB"/>
  <outline>
    <contour>
      <point x="140" y="486" type="line"/>
      <point x="66" y="486" type="line"/>
      <point x="270" y="290" type="line"/>
      <point x="270" y="278" type="line"/>
      <point x="66" y="82" type="line"/>
      <point x="140" y="82" type="line"/>
      <point x="336" y="262" type="line"/>
      <point x="336" y="306" type="line"/>
    </contour>
    <contour>
      <point x="370" y="486" type="line"/>
      <point x="296" y="486" type="line"/>
      <point x="500" y="290" type="line"/>
      <point x="500" y="278" type="line"/>
      <point x="296" y="82" type="line"/>
      <point x="370" y="82" type="line"/>
      <point x="566" y="262" type="line"/>
      <point x="566" y="306" type="line"/>
    </contour>
  </outline>
</glyph>
<glyph name="Aacute" format="1">
  <advance width="754"/>
  <unicode hex="00C1"/>
  <note>
Aacute
</note>
  <outline>
    <component base="A"/>
    <component base="acutecomb.case" xOffset="177" yOffset="40"/>
    <contour>
      <point x="718" y="0" type="move" name="ogonek"/>
    </contour>
    <contour>
      <point x="377" y="690" type="move" name="top"/>
    </contour>
  </outline>
</glyph>
<glyph name="Adieresis" format="1">
  <advance width="754"/>
  <unicode hex="00C4"/>
  <outline>
    <component base="A"/>
    <component base="dieresiscomb.case" xOffset="177" yOffset="40"/>
    <contour>
      <point x="718" y="0" type="move" name="ogonek"/>
    </contour>
    <contour>
      <point x="377" y="690" type="move" name="top"/>
    </contour>
  </outline>
</glyph>
<glyph name="AE" format="1">
  <advance width="1100"/>
  <unicode hex="00C6"/>
  <note>
AE
</note>
  <outline>
    <contour>
      <point x="8" y="0" type="line"/>
      <point x="85" y="0" type="line"/>
      <point x="484" y="632" type="line"/>
      <point x="508" y="632" type="line"/>
      <point x="555" y="690" type="line"/>
      <point x="446" y="690" type="line"/>
    </contour>
    <contour>
      <point x="172" y="187" type="line"/>
      <point x="547" y="187" type="line"/>
      <point x="547" y="239" type="line"/>
      <point x="192" y="239" type="line"/>
    </contour>
    <contour>
      <point x="299" y="636" type="line"/>
      <point x="464" y="636" type="line"/>
      <point x="464" y="690" type="line"/>
      <point x="299" y="690" type="line"/>
    </contour>
    <contour>
      <point x="964" y="494" type="line"/>
      <point x="1022" y="494" type="line"/>
      <point x="1022" y="690" type="line"/>
      <point x="508" y="690" type="line"/>
      <point x="508" y="0" type="line"/>
      <point x="1026" y="0" type="line"/>
      <point x="1026" y="200" type="line"/>
      <point x="968" y="200" type="line"/>
      <point x="968" y="54" type="line"/>
      <point x="574" y="54" type="line"/>
      <point x="574" y="326" type="line"/>
      <point x="910" y="326" type="line"/>
      <point x="910" y="378" type="line"/>
      <point x="574" y="378" type="line"/>
      <point x="574" y="636" type="line"/>
      <point x="964" y="636" type="line"/>
    </contour>
    <contour>
      <point x="1026" y="0" type="move" name="ogonek"/>
    </contour>
    <contour>
      <point x="766" y="690" type="move" name="top"/>
    </contour>
  </outline>
</glyph>
<glyph name="Egrave" format="1">
  <advance width="720"/>
  <unicode hex="00C8"/>
  <note>
Egrave
</note>
  <outline>
    <component base="E"/>
    <component base="gravecomb.case" xOffset="163" yOffset="40"/>
    <contour>
      <point x="647" y="0" type="move" name="ogonek"/>
    </contour>
    <contour>
      <point x="363" y="690" type="move" name="top"/>
    </contour>
  </outline>
</glyph>
<glyph name="multiply" format="1">
  <advance width="532"/>
  <unicode hex="00D7"/>
  <outline>
    <contour>
      <point x="112" y="146" type="line"/>
      <point x="457" y="491" type="line"/>
      <point x="420" y="528" type="line"/>
      <point x="75" y="183" type="line"/>
    </contour>
    <contour>
      <point x="419" y="147" type="line"/>
      <point x="456" y="184" type="line"/>
      <point x="113" y="527" type="line"/>
      <point x="76" y="490" type="line"/>
    </contour>
  </outline>
</glyph>
<glyph name="Oslash" format="1">
  <advance width="837"/>
  <unicode hex="00D8"/>
  <note>
Oslash
</note>
  <outline>
    <contour>
      <point x="419" y="-10" type="curve" smooth="yes"/>
      <point x="633" y="-10"/>
      <point x="765" y="126"/>
      <point x="765" y="345" type="curve" smooth="yes"/>
      <point x="765" y="564"/>
      <point x="633" y="700"/>
      <point x="419" y="700" type="curve" smooth="yes"/>
      <point x="205" y="700"/>
      <point x="73" y="564"/>
      <point x="73" y="345" type="curve" smooth="yes"/>
      <point x="73" y="126"/>
      <point x="205" y="-10"/>
    </contour>
    <contour>
      <point x="419" y="48" type="curve" smooth="yes"/>
      <point x="233" y="48"/>
      <point x="143" y="144"/>
      <point x="143" y="344" type="curve" smooth="yes"/>
      <point x="143" y="346" type="line" smooth="yes"/>
      <point x="143" y="546"/>
      <point x="233" y="642"/>
      <point x="419" y="642" type="curve" smooth="yes"/>
      <point x="605" y="642"/>
      <point x="695" y="546"/>
      <point x="695" y="346" type="curve" smooth="yes"/>
      <point x="695" y="344" type="line" smooth="yes"/>
      <point x="695" y="144"/>
      <point x="605" y="48"/>
    </contour>
    <contour>
      <point x="73" y="-10" type="line"/>
      <point x="143" y="-10" type="line"/>
      <point x="214" y="71" type="line"/>
      <point x="216" y="71" type="line"/>
      <point x="671" y="595" type="line"/>
      <point x="673" y="595" type="line"/>
      <point x="765" y="700" type="line"/>
      <point x="695" y="700" type="line"/>
      <point x="624" y="619" type="line"/>
      <point x="622" y="619" type="line"/>
      <point x="167" y="95" type="line"/>
      <point x="165" y="95" type="line"/>
    </contour>
    <contour>
      <point x="419" y="690" type="move" name="top"/>
    </contour>
  </outline>
</glyph>
<glyph name="Thorn" format="1">
  <advance width="756"/>
  <unicode hex="00DE"/>
  <note>
Thorn
</note>
  <outline>
    <contour>
      <point x="185" y="156" type="line"/>
      <point x="483" y="156" type="line" smooth="yes"/>
      <point x="610" y="156"/>
      <point x="690" y="232"/>
      <point x="690" y="352" type="curve" smooth="yes"/>
      <point x="690" y="472"/>
      <point x="610" y="548"/>
      <point x="483" y="548" type="curve" smooth="yes"/>
      <point x="185" y="548" type="line"/>
      <point x="185" y="496" type="line"/>
      <point x="477" y="496" type="line" smooth="yes"/>
      <point x="571" y="496"/>
      <point x="622" y="446"/>
      <point x="622" y="353" type="curve" smooth="yes"/>
      <point x="622" y="351" type="line" smooth="yes"/>
      <point x="622" y="258"/>
      <point x="571" y="208"/>
      <point x="477" y="208" type="curve" smooth="yes"/>
      <point x="185" y="208" type="line"/>
    </contour>
    <contour>
      <point x="152" y="0" type="line"/>
      <point x="218" y="0" type="line"/>
      <point x="218" y="690" type="line"/>
      <point x="40" y="690" type="line"/>
      <point x="40" y="636" type="line"/>
      <point x="152" y="636" type="line"/>
    </contour>
  </outline>
</glyph>
<glyph name="oslash" format="1">
  <advance width="688"/>
  <unicode hex="00F8"/>
  <note>
oslash
</note>
  <outline>
    <contour>
      <point x="344" y="-10" type="curve" smooth="yes"/>
      <point x="514" y="-10"/>
      <point x="622" y="97"/>
      <point x="622" y="267" type="curve" smooth="yes"/>
      <point x="622" y="437"/>
      <point x="514" y="544"/>
      <point x="344" y="544" type="curve" smooth="yes"/>
      <point x="174" y="544"/>
      <point x="66" y="437"/>
      <point x="66" y="267" type="curve" smooth="yes"/>
      <point x="66" y="97"/>
      <point x="174" y="-10"/>
    </contour>
    <contour>
      <point x="344" y="46" type="curve" smooth="yes"/>
      <point x="202" y="46"/>
      <point x="134" y="117"/>
      <point x="134" y="266" type="curve" smooth="yes"/>
      <point x="134" y="268" type="line" smooth="yes"/>
      <point x="134" y="417"/>
      <point x="202" y="488"/>
      <point x="344" y="488" type="curve" smooth="yes"/>
      <point x="486" y="488"/>
      <point x="554" y="417"/>
      <point x="554" y="268" type="curve" smooth="yes"/>
      <point x="554" y="266" type="line" smooth="yes"/>
      <point x="554" y="117"/>
      <point x="486" y="46"/>
    </contour>
    <contour>
      <point x="70" y="-10" type="line"/>
      <point x="136" y="-10" type="line"/>
      <point x="200" y="64" type="line"/>
      <point x="202" y="64" type="line"/>
      <point x="531" y="446" type="line"/>
      <point x="533" y="446" type="line"/>
      <point x="618" y="544" type="line"/>
      <point x="552" y="544" type="line"/>
      <point x="488" y="470" type="line"/>
      <point x="486" y="470" type="line"/>
      <point x="157" y="88" type="line"/>
      <point x="155" y="88" type="line"/>
    </contour>
    <contour>
      <point x="344" y="534" type="move" name="top"/>
    </contour>
  </outline>
</glyph>
<glyph name="yacute" format="1">
  <advance width="629"/>
  <unicode hex="00FD"/>
  <note>
yacute
</note>
  <outline>
    <component base="y"/>
    <component base="acutecomb" xOffset="118"/>
    <contour>
      <point x="318" y="534" type="move" name="top"/>
    </contour>
  </outline>
</glyph>
<glyph name="Aogonek" format="1">
  <advance width="754"/>
  <unicode hex="0104"/>
  <outline>
    <contour>
      <point x="42" y="0" type="line"/>
      <point x="112" y="0" type="line"/>
      <point x="367" y="632" type="line"/>
      <point x="391" y="632" type="line"/>
      <point x="646" y="0" type="line"/>
      <point x="718" y="0" type="line"/>
      <point x="438" y="690" type="line"/>
      <point x="322" y="690" type="line"/>
    </contour>
    <contour>
      <point x="161" y="187" type="line"/>
      <point x="600" y="187" type="line"/>
      <point x="580" y="239" type="line"/>
      <point x="181" y="239" type="line"/>
    </contour>
    <contour>
      <point x="188" y="636" type="line"/>
      <point x="347" y="636" type="line"/>
      <point x="347" y="690" type="line"/>
      <point x="188" y="690" type="line"/>
    </contour>
    <contour>
      <point x="613" y="-148" type="curve" smooth="yes"/>
      <point x="726" y="-148" type="line"/>
      <point x="726" y="-104" type="line"/>
      <point x="620" y="-104" type="line" smooth="yes"/>
      <point x="600" y="-104"/>
      <point x="590" y="-96"/>
      <point x="590" y="-80" type="curve" smooth="yes"/>
      <point x="590" y="-56"/>
      <point x="620" y="-37"/>
      <point x="718" y="0" type="curve"/>
      <point x="646" y="9" type="line"/>
      <point x="646" y="-10" type="line"/>
      <point x="567" y="-30"/>
      <point x="542" y="-49"/>
      <point x="542" y="-92" type="curve" smooth="yes"/>
      <point x="542" y="-128"/>
      <point x="567" y="-148"/>
    </contour>
    <contour>
      <point x="718" y="0" type="move" name="ogonek"/>
    </contour>
    <contour>
      <point x="377" y="690" type="move" name="top"/>
    </contour>
  </outline>
</glyph>
<glyph name="lslash" format="1">
  <advance width="379"/>
  <unicode hex="0142"/>
  <note>
lslash
</note>
  <outline>
    <contour>
      <point x="38" y="266" type="line"/>
      <point x="338" y="416" type="line"/>
      <point x="338" y="468" type="line"/>
      <point x="38" y="318" type="line"/>
    </contour>
    <contour>
      <point x="156" y="0" type="line"/>
      <point x="220" y="0" type="line"/>
      <point x="220" y="690" type="line"/>
      <point x="42" y="690" type="line"/>
      <point x="42" y="638" type="line"/>
      <point x="156" y="638" type="line"/>
    </contour>
  </outline>
</glyph>
<glyph name="OE" format="1">
  <advance width="1191"/>
  <unicode hex="0152"/>
  <note>
OE
</note>
  <outline>
    <contour>
      <point x="405" y="0" type="curve" smooth="yes"/>
      <point x="636" y="0" type="line"/>
      <point x="636" y="54" type="line"/>
      <point x="411" y="54" type="line" smooth="yes"/>
      <point x="228" y="54"/>
      <point x="139" y="144"/>
      <point x="139" y="344" type="curve" smooth="yes"/>
      <point x="139" y="346" type="line" smooth="yes"/>
      <point x="139" y="546"/>
      <point x="228" y="636"/>
      <point x="411" y="636" type="curve" smooth="yes"/>
      <point x="636" y="636" type="line"/>
      <point x="636" y="690" type="line"/>
      <point x="405" y="690" type="line" smooth="yes"/>
      <point x="188" y="690"/>
      <point x="69" y="568"/>
      <point x="69" y="345" type="curve" smooth="yes"/>
      <point x="69" y="122"/>
      <point x="188" y="0"/>
    </contour>
    <contour>
      <point x="1057" y="494" type="line"/>
      <point x="1115" y="494" type="line"/>
      <point x="1115" y="690" type="line"/>
      <point x="601" y="690" type="line"/>
      <point x="601" y="0" type="line"/>
      <point x="1119" y="0" type="line"/>
      <point x="1119" y="200" type="line"/>
      <point x="1061" y="200" type="line"/>
      <point x="1061" y="54" type="line"/>
      <point x="667" y="54" type="line"/>
      <point x="667" y="326" type="line"/>
      <point x="1003" y="326" type="line"/>
      <point x="1003" y="378" type="line"/>
      <point x="667" y="378" type="line"/>
      <point x="667" y="636" type="line"/>
      <point x="1057" y="636" type="line"/>
    </contour>
    <contour>
      <point x="1119" y="0" type="move" name="ogonek"/>
    </contour>
    <contour>
      <point x="859" y="690" type="move" name="top"/>
    </contour>
  </outline>
</glyph>
<glyph name="Ydieresis" format="1">
  <advance width="738"/>
  <unicode hex="0178"/>
  <note>
Ydieresis
</note>
  <outline>
    <component base="Y"/>
    <component base="dieresiscomb.case" xOffset="170" yOffset="40"/>
    <contour>
      <point x="370" y="690" type="move" name="top"/>
    </contour>
  </outline>
</glyph>
<glyph name="Zdotaccent" format="1">
  <advance width="681"/>
  <unicode hex="017B"/>
  <outline>
    <component base="Z"/>
    <component base="dotaccentcomb.case" xOffset="141" yOffset="40"/>
    <contour>
      <point x="341" y="690" type="move" name="top"/>
    </contour>
  </outline>
</glyph>
<glyph name="Zcaron" format="1">
  <advance width="681"/>
  <unicode hex="017D"/>
  <note>
Zcaron
</note>
  <outline>
    <component base="Z"/>
    <component base="caroncomb.case" xOffset="141" yOffset="40"/>
    <contour>
      <point x="341" y="690" type="move" name="top"/>
    </contour>
  </outline>
</glyph>
<glyph name="florin" format="1">
  <advance width="528"/>
  <unicode hex="0192"/>
  <outline>
    <contour>
      <point x="56" y="0" type="line"/>
      <point x="242" y="0" type="line" smooth="yes"/>
      <point x="273" y="0"/>
      <point x="290" y="17"/>
      <point x="290" y="48" type="curve" smooth="yes"/>
      <point x="290" y="636" type="line"/>
      <point x="480" y="636" type="line"/>
      <point x="480" y="690" type="line"/>
      <point x="274" y="690" type="line" smooth="yes"/>
      <point x="243" y="690"/>
      <point x="226" y="673"/>
      <point x="226" y="642" type="curve" smooth="yes"/>
      <point x="226" y="54" type="line"/>
      <point x="56" y="54" type="line"/>
    </contour>
    <contour>
      <point x="56" y="414" type="line"/>
      <point x="480" y="414" type="line"/>
      <point x="480" y="464" type="line"/>
      <point x="56" y="464" type="line"/>
    </contour>
  </outline>
</glyph>
<glyph name="jdotless" format="1">
  <advance width="313"/>
  <unicode hex="0237"/>
  <outline>
    <contour>
      <point x="20" y="-132" type="line"/>
      <point x="158" y="-132" type="line" smooth="yes"/>
      <point x="189" y="-132"/>
      <point x="206" y="-115"/>
      <point x="206" y="-84" type="curve" smooth="yes"/>
      <point x="206" y="534" type="line"/>
      <point x="28" y="534" type="line"/>
      <point x="28" y="482" type="line"/>
      <point x="142" y="482" type="line"/>
      <point x="142" y="-80" type="line"/>
      <point x="20" y="-80" type="line"/>
    </contour>
    <contour>
      <point x="172" y="534" type="move" name="top"/>
    </contour>
  </outline>
</glyph>
<glyph name="acutecomb" format="1">
  <advance width="0"/>
  <unicode hex="0301"/>
  <note>
acute
</note>
  <outline>
    <contour>
      <point x="152" y="578" type="line"/>
      <point x="200" y="578" type="line"/>
      <point x="294" y="706" type="line"/>
      <point x="222" y="706" type="line"/>
    </contour>
    <contour>
      <point x="200" y="534" type="move" name="_top"/>
    </contour>
  </outline>
</glyph>
<glyph name="cedillacomb" format="1">
  <advance width="0"/>
  <unicode hex="0327"/>
  <note>
cedilla
</note>
  <outline>
    <contour>
      <point x="126" y="-164" type="line"/>
      <point x="259" y="-164" type="line" smooth="yes"/>
      <point x="310" y="-164"/>
      <point x="338" y="-141"/>
      <point x="338" y="-98" type="curve" smooth="yes"/>
      <point x="338" y="-56"/>
      <point x="310" y="-34"/>
      <point x="259" y="-34" type="curve" smooth="yes"/>
      <point x="209" y="-34" type="line"/>
      <point x="224" y="-49" type="line"/>
      <point x="224" y="10" type="line"/>
      <point x="176" y="10" type="line"/>
      <point x="176" y="-72" type="line"/>
      <point x="256" y="-72" type="line" smooth="yes"/>
      <point x="276" y="-72"/>
      <point x="286" y="-80"/>
      <point x="286" y="-96" type="curve" smooth="yes"/>
      <point x="286" y="-112"/>
      <point x="276" y="-120"/>
      <point x="256" y="-120" type="curve" smooth="yes"/>
      <point x="126" y="-120" type="line"/>
    </contour>
    <contour>
      <point x="200" y="0" type="move" name="_bottom"/>
    </contour>
  </outline>
</glyph>
<glyph name="ogonekcomb" format="1">
  <advance width="0"/>
  <unicode hex="0328"/>
  <outline>
    <contour>
      <point x="95" y="-148" type="curve" smooth="yes"/>
      <point x="208" y="-148" type="line"/>
      <point x="208" y="-104" type="line"/>
      <point x="102" y="-104" type="line" smooth="yes"/>
      <point x="82" y="-104"/>
      <point x="72" y="-96"/>
      <point x="72" y="-80" type="curve" smooth="yes"/>
      <point x="72" y="-56"/>
      <point x="102" y="-37"/>
      <point x="200" y="0" type="curve"/>
      <point x="107" y="11" type="line"/>
      <point x="107" y="-18" type="line"/>
      <point x="47" y="-32"/>
      <point x="24" y="-52"/>
      <point x="24" y="-92" type="curve" smooth="yes"/>
      <point x="24" y="-128"/>
      <point x="49" y="-148"/>
    </contour>
    <contour>
      <point x="200" y="0" type="move" name="_ogonek"/>
    </contour>
  </outline>
</glyph>
<glyph name="endash" format="1">
  <advance width="649"/>
  <unicode hex="2013"/>
  <outline>
    <contour>
      <point x="68" y="258" type="line"/>
      <point x="580" y="258" type="line"/>
      <point x="580" y="310" type="line"/>
      <point x="68" y="310" type="line"/>
    </contour>
  </outline>
</glyph>
<glyph name="quoteleft" format="1">
  <advance width="269"/>
  <unicode hex="2018"/>
  <outline>
    <contour>
      <point x="179" y="690" type="line"/>
      <point x="138" y="690" type="line"/>
      <point x="89" y="588" type="line"/>
      <point x="89" y="506" type="line"/>
      <point x="175" y="506" type="line"/>
      <point x="175" y="588" type="line"/>
      <point x="132" y="588" type="line"/>
    </contour>
  </outline>
</glyph>
<glyph name="quotedblleft" format="1">
  <advance width="444"/>
  <unicode hex="201C"/>
  <outline>
    <contour>
      <point x="340" y="690" type="line"/>
      <point x="299" y="690" type="line"/>
      <point x="250" y="588" type="line"/>
      <point x="250" y="506" type="line"/>
      <point x="336" y="506" type="line"/>
      <point x="336" y="588" type="line"/>
      <point x="293" y="588" type="line"/>
    </contour>
    <contour>
      <point x="194" y="690" type="line"/>
      <point x="153" y="690" type="line"/>
      <point x="104" y="588" type="line"/>
      <point x="104" y="506" type="line"/>
      <point x="190" y="506" type="line"/>
      <point x="190" y="588" type="line"/>
      <point x="147" y="588" type="line"/>
    </contour>
  </outline>
</glyph>
<glyph name="dagger" format="1">
  <advance width="471"/>
  <unicode hex="2020"/>
  <outline>
    <contour>
      <point x="37" y="460" type="line"/>
      <point x="433" y="460" type="line"/>
      <point x="433" y="516" type="line"/>
      <point x="341" y="516" type="line"/>
      <point x="260" y="493" type="line"/>
      <point x="254" y="498" type="line"/>
      <point x="266" y="592" type="line"/>
      <point x="266" y="690" type="line"/>
      <point x="204" y="690" type="line"/>
      <point x="204" y="592" type="line"/>
      <point x="216" y="498" type="line"/>
      <point x="210" y="493" type="line"/>
      <point x="129" y="516" type="line"/>
      <point x="37" y="516" type="line"/>
    </contour>
    <contour>
      <point x="214" y="0" type="line"/>
      <point x="256" y="0" type="line"/>
      <point x="267" y="337" type="line"/>
      <point x="252" y="476" type="line"/>
      <point x="218" y="476" type="line"/>
      <point x="203" y="337" type="line"/>
    </contour>
  </outline>
</glyph>
<glyph name="perthousand" format="1">
  <advance width="1356"/>
  <unicode hex="2030"/>
  <outline>
    <contour>
      <point x="105" y="0" type="line"/>
      <point x="175" y="0" type="line"/>
      <point x="441" y="322" type="line"/>
      <point x="371" y="322" type="line"/>
    </contour>
    <contour>
      <point x="451" y="368" type="line"/>
      <point x="521" y="368" type="line"/>
      <point x="787" y="690" type="line"/>
      <point x="717" y="690" type="line"/>
    </contour>
    <contour>
      <point x="256" y="360" type="curve" smooth="yes"/>
      <point x="389" y="360"/>
      <point x="457" y="439"/>
      <point x="457" y="530" type="curve" smooth="yes"/>
      <point x="457" y="621"/>
      <point x="389" y="700"/>
      <point x="256" y="700" type="curve" smooth="yes"/>
      <point x="123" y="700"/>
      <point x="55" y="621"/>
      <point x="55" y="530" type="curve" smooth="yes"/>
      <point x="55" y="439"/>
      <point x="123" y="360"/>
    </contour>
    <contour>
      <point x="256" y="410" type="curve" smooth="yes"/>
      <point x="162" y="410"/>
      <point x="115" y="450"/>
      <point x="115" y="523" type="curve" smooth="yes"/>
      <point x="115" y="537" type="line" smooth="yes"/>
      <point x="115" y="610"/>
      <point x="162" y="650"/>
      <point x="256" y="650" type="curve" smooth="yes"/>
      <point x="350" y="650"/>
      <point x="397" y="610"/>
      <point x="397" y="537" type="curve" smooth="yes"/>
      <point x="397" y="523" type="line" smooth="yes"/>
      <point x="397" y="450"/>
      <point x="350" y="410"/>
    </contour>
    <contour>
      <point x="636" y="-10" type="curve" smooth="yes"/>
      <point x="769" y="-10"/>
      <point x="837" y="69"/>
      <point x="837" y="160" type="curve" smooth="yes"/>
      <point x="837" y="251"/>
      <point x="769" y="330"/>
      <point x="636" y="330" type="curve" smooth="yes"/>
      <point x="503" y="330"/>
      <point x="435" y="251"/>
      <point x="435" y="160" type="curve" smooth="yes"/>
      <point x="435" y="69"/>
      <point x="503" y="-10"/>
    </contour>
    <contour>
      <point x="636" y="40" type="curve" smooth="yes"/>
      <point x="542" y="40"/>
      <point x="495" y="80"/>
      <point x="495" y="153" type="curve" smooth="yes"/>
      <point x="495" y="167" type="line" smooth="yes"/>
      <point x="495" y="240"/>
      <point x="542" y="280"/>
      <point x="636" y="280" type="curve" smooth="yes"/>
      <point x="730" y="280"/>
      <point x="777" y="240"/>
      <point x="777" y="167" type="curve" smooth="yes"/>
      <point x="777" y="153" type="line" smooth="yes"/>
      <point x="777" y="80"/>
      <point x="730" y="40"/>
    </contour>
    <contour>
      <point x="1108" y="-10" type="curve" smooth="yes"/>
      <point x="1241" y="-10"/>
      <point x="1309" y="69"/>
      <point x="1309" y="160" type="curve" smooth="yes"/>
      <point x="1309" y="251"/>
      <point x="1241" y="330"/>
      <point x="1108" y="330" type="curve" smooth="yes"/>
      <point x="975" y="330"/>
      <point x="907" y="251"/>
      <point x="907" y="160" type="curve" smooth="yes"/>
      <point x="907" y="69"/>
      <point x="975" y="-10"/>
    </contour>
    <contour>
      <point x="1108" y="40" type="curve" smooth="yes"/>
      <point x="1014" y="40"/>
      <point x="967" y="80"/>
      <point x="967" y="153" type="curve" smooth="yes"/>
      <point x="967" y="167" type="line" smooth="yes"/>
      <point x="967" y="240"/>
      <point x="1014" y="280"/>
      <point x="1108" y="280" type="curve" smooth="yes"/>
      <point x="1202" y="280"/>
      <point x="1249" y="240"/>
      <point x="1249" y="167" type="curve" smooth="yes"/>
      <point x="1249" y="153" type="line" smooth="yes"/>
      <point x="1249" y="80"/>
      <point x="1202" y="40"/>
    </contour>
  </outline>
</glyph>
<glyph name="foursuperior" format="1">
  <advance width="404"/>
  <unicode hex="2074"/>
  <note>
uniF009
</note>
  <outline>
    <contour>
      <point x="34" y="445" type="line"/>
      <point x="374" y="445" type="line"/>
      <point x="374" y="485" type="line"/>
      <point x="98" y="485" type="line"/>
      <point x="222" y="690" type="line"/>
      <point x="158" y="690" type="line"/>
      <point x="34" y="485" type="line"/>
    </contour>
    <contour>
      <point x="237" y="368" type="line"/>
      <point x="297" y="368" type="line"/>
      <point x="297" y="569" type="line"/>
      <point x="257" y="569" type="line"/>
      <point x="237" y="516" type="line"/>
    </contour>
  </outline>
</glyph>
<glyph name="trademark" format="1">
  <advance width="1030"/>
  <unicode hex="2122"/>
  <outline>
    <contour>
      <point x="202" y="304" type="line"/>
      <point x="262" y="304" type="line"/>
      <point x="262" y="646" type="line"/>
      <point x="361" y="646" type="line"/>
      <point x="361" y="566" type="line"/>
      <point x="412" y="566" type="line"/>
      <point x="412" y="690" type="line"/>
      <point x="52" y="690" type="line"/>
      <point x="52" y="566" type="line"/>
      <point x="103" y="566" type="line"/>
      <point x="103" y="646" type="line"/>
      <point x="202" y="646" type="line"/>
    </contour>
    <contour>
      <point x="478" y="304" type="line"/>
      <point x="537" y="304" type="line"/>
      <point x="537" y="641" type="line"/>
      <point x="554" y="641" type="line"/>
      <point x="681" y="304" type="line"/>
      <point x="736" y="304" type="line"/>
      <point x="863" y="641" type="line"/>
      <point x="880" y="641" type="line"/>
      <point x="880" y="304" type="line"/>
      <point x="940" y="304" type="line"/>
      <point x="940" y="690" type="line"/>
      <point x="827" y="690" type="line"/>
      <point x="717" y="400" type="line"/>
      <point x="701" y="400" type="line"/>
      <point x="591" y="690" type="line"/>
      <point x="478" y="690" type="line"/>
    </contour>
  </outline>
</glyph>
<glyph name="Ohm" format="1">
  <advance width="831"/>
  <unicode hex="2126"/>
  <outline>
    <contour>
      <point x="81" y="0" type="line"/>
      <point x="321" y="0" type="line"/>
      <point x="321" y="78" type="line"/>
      <point x="230" y="137"/>
      <point x="143" y="228"/>
      <point x="143" y="366" type="curve" smooth="yes"/>
      <point x="143" y="368" type="line" smooth="yes"/>
      <point x="143" y="545"/>
      <point x="263" y="642"/>
      <point x="415" y="642" type="curve" smooth="yes"/>
      <point x="567" y="642"/>
      <point x="687" y="545"/>
      <point x="687" y="368" type="curve" smooth="yes"/>
      <point x="687" y="366" type="line" smooth="yes"/>
      <point x="687" y="228"/>
      <point x="600" y="137"/>
      <point x="509" y="78" type="curve"/>
      <point x="509" y="0" type="line"/>
      <point x="749" y="0" type="line"/>
      <point x="749" y="58" type="line"/>
      <point x="577" y="58" type="line"/>
      <point x="577" y="82" type="line"/>
      <point x="670" y="125"/>
      <point x="757" y="234"/>
      <point x="757" y="367" type="curve" smooth="yes"/>
      <point x="757" y="557"/>
      <point x="607" y="700"/>
      <point x="415" y="700" type="curve" smooth="yes"/>
      <point x="223" y="700"/>
      <point x="73" y="557"/>
      <point x="73" y="367" type="curve" smooth="yes"/>
      <point x="73" y="234"/>
      <point x="160" y="125"/>
      <point x="253" y="82" type="curve"/>
      <point x="253" y="58" type="line"/>
      <point x="81" y="58" type="line"/>
    </contour>
  </outline>
</glyph>
<glyph name="partialdiff" format="1">
  <advance width="676"/>
  <unicode hex="2202"/>
  <outline>
    <contour>
      <point x="342" y="-10" type="curve" smooth="yes"/>
      <point x="507" y="-10"/>
      <point x="610" y="92"/>
      <point x="610" y="255" type="curve" smooth="yes"/>
      <point x="610" y="487"/>
      <point x="471" y="656"/>
      <point x="201" y="700" type="curve"/>
      <point x="201" y="640" type="line"/>
      <point x="395" y="615"/>
      <point x="496" y="504"/>
      <point x="528" y="424" type="curve"/>
      <point x="504" y="424" type="line"/>
      <point x="479" y="465"/>
      <point x="403" y="504"/>
      <point x="312" y="504" type="curve" smooth="yes"/>
      <point x="160" y="504"/>
      <point x="64" y="405"/>
      <point x="64" y="247" type="curve" smooth="yes"/>
      <point x="64" y="89"/>
      <point x="171" y="-10"/>
    </contour>
    <contour>
      <point x="342" y="46" type="curve" smooth="yes"/>
      <point x="202" y="46"/>
      <point x="132" y="112"/>
      <point x="132" y="246" type="curve" smooth="yes"/>
      <point x="132" y="248" type="line" smooth="yes"/>
      <point x="132" y="382"/>
      <point x="200" y="448"/>
      <point x="338" y="448" type="curve" smooth="yes"/>
      <point x="476" y="448"/>
      <point x="544" y="382"/>
      <point x="544" y="248" type="curve" smooth="yes"/>
      <point x="544" y="246" type="line" smooth="yes"/>
      <point x="544" y="113"/>
      <point x="477" y="46"/>
    </contour>
  </outline>
</glyph>
<glyph name="increment" format="1">
  <advance width="737"/>
  <unicode hex="2206"/>
  <outline>
    <contour>
      <point x="48" y="0" type="line"/>
      <point x="688" y="0" type="line"/>
      <point x="688" y="54" type="line"/>
      <point x="426" y="690" type="line"/>
      <point x="310" y="690" type="line"/>
      <point x="48" y="54" type="line"/>
    </contour>
    <contour>
      <point x="118" y="54" type="line"/>
      <point x="355" y="632" type="line"/>
      <point x="379" y="632" type="line"/>
      <point x="616" y="54" type="line"/>
    </contour>
  </outline>
</glyph>
<glyph name="integral" format="1">
  <advance width="376"/>
  <unicode hex="222B"/>
  <outline>
    <contour>
      <point x="36" y="0" type="line"/>
      <point x="174" y="0" type="line" smooth="yes"/>
      <point x="203" y="0"/>
      <point x="218" y="15"/>
      <point x="218" y="44" type="curve" smooth="yes"/>
      <point x="218" y="636" type="line"/>
      <point x="342" y="636" type="line"/>
      <point x="342" y="690" type="line"/>
      <point x="204" y="690" type="line" smooth="yes"/>
      <point x="175" y="690"/>
      <point x="160" y="675"/>
      <point x="160" y="646" type="curve" smooth="yes"/>
      <point x="160" y="54" type="line"/>
      <point x="36" y="54" type="line"/>
    </contour>
  </outline>
</glyph>
<glyph name="notequal" format="1">
  <advance width="532"/>
  <unicode hex="2260"/>
  <outline>
    <contour>
      <point x="146" y="113" type="line"/>
      <point x="198" y="113" type="line"/>
      <point x="390" y="561" type="line"/>
      <point x="338" y="561" type="line"/>
    </contour>
    <contour>
      <point x="46" y="399" type="line"/>
      <point x="490" y="399" type="line"/>
      <point x="490" y="451" type="line"/>
      <point x="46" y="451" type="line"/>
    </contour>
    <contour>
      <point x="46" y="223" type="line"/>
      <point x="490" y="223" type="line"/>
      <point x="490" y="275" type="line"/>
      <point x="46" y="275" type="line"/>
    </contour>
  </outline>
</glyph>
<glyph name="lessequal" format="1">
  <advance width="532"/>
  <unicode hex="2264"/>
  <outline>
    <contour>
      <point x="484" y="169" type="line"/>
      <point x="484" y="226" type="line"/>
      <point x="98" y="375" type="line"/>
      <point x="98" y="399" type="line"/>
      <point x="484" y="548" type="line"/>
      <point x="484" y="605" type="line"/>
      <point x="40" y="427" type="line"/>
      <point x="40" y="347" type="line"/>
    </contour>
    <contour>
      <point x="40" y="0" type="line"/>
      <point x="484" y="0" type="line"/>
      <point x="484" y="52" type="line"/>
      <point x="40" y="52" type="line"/>
    </contour>
  </outline>
</glyph>
<glyph name="lozenge" format="1">
  <advance width="795"/>
  <unicode hex="25CA"/>
  <outline>
    <contour>
      <point x="361" y="0" type="line"/>
      <point x="433" y="0" type="line"/>
      <point x="738" y="345" type="line"/>
      <point x="433" y="690" type="line"/>
      <point x="361" y="690" type="line"/>
      <point x="58" y="345" type="line"/>
    </contour>
    <contour>
      <point x="385" y="65" type="line"/>
      <point x="139" y="345" type="line"/>
      <point x="385" y="625" type="line"/>
      <point x="409" y="625" type="line"/>
      <point x="657" y="345" type="line"/>
      <point x="409" y="65" type="line"/>
    </contour>
  </outline>
</glyph>
<glyph name="fl" format="1">
  <advance width="749"/>
  <unicode hex="FB02"/>
  <outline>
    <contour>
      <point x="166" y="642" type="curve" smooth="yes"/>
      <point x="166" y="0" type="line"/>
      <point x="230" y="0" type="line"/>
      <point x="230" y="638" type="line"/>
      <point x="410" y="638" type="line"/>
      <point x="410" y="690" type="line"/>
      <point x="214" y="690" type="line" smooth="yes"/>
      <point x="183" y="690"/>
      <point x="166" y="673"/>
    </contour>
    <contour>
      <point x="46" y="0" type="line"/>
      <point x="394" y="0" type="line"/>
      <point x="394" y="52" type="line"/>
      <point x="46" y="52" type="line"/>
    </contour>
    <contour>
      <point x="38" y="482" type="line"/>
      <point x="410" y="482" type="line"/>
      <point x="410" y="534" type="line"/>
      <point x="38" y="534" type="line"/>
    </contour>
    <contour>
      <point x="564" y="0" type="line"/>
      <point x="628" y="0" type="line"/>
      <point x="628" y="690" type="line"/>
      <point x="450" y="690" type="line"/>
      <point x="450" y="638" type="line"/>
      <point x="564" y="638" type="line"/>
    </contour>
    <contour>
      <point x="367" y="690" type="line"/>
      <point x="367" y="638" type="line"/>
      <point x="510" y="638" type="line"/>
      <point x="510" y="690" type="line"/>
    </contour>
  </outline>
</glyph>
<glyph name="personalComputer" format="1">
  <advance width="1028"/>
  <unicode hex="1F4BB"/>
  <outline>
    <contour>
      <point x="752" y="0" type="line"/>
      <point x="817" y="0" type="line"/>
      <point x="1018" y="690" type="line"/>
      <point x="953" y="690" type="line"/>
    </contour>
    <contour>
      <point x="99" y="0" type="line"/>
      <point x="185" y="0" type="line"/>
      <point x="185" y="82" type="line"/>
      <point x="99" y="82" type="line"/>
    </contour>
    <contour>
      <point x="99" y="452" type="line"/>
      <point x="185" y="452" type="line"/>
      <point x="185" y="534" type="line"/>
      <point x="99" y="534" type="line"/>
    </contour>
    <contour>
      <point x="395" y="0" type="line"/>
      <point x="460" y="0" type="line"/>
      <point x="661" y="690" type="line"/>
      <point x="596" y="690" type="line"/>
    </contour>
  </outline>
</glyph>
<glyph name="A.ss03" format="1">
  <advance width="746"/>
  <outline>
    <contour>
      <point x="35" y="0" type="line"/>
      <point x="105" y="0" type="line"/>
      <point x="360" y="632" type="line"/>
      <point x="384" y="632" type="line"/>
      <point x="639" y="0" type="line"/>
      <point x="711" y="0" type="line"/>
      <point x="431" y="690" type="line"/>
      <point x="315" y="690" type="line"/>
    </contour>
    <contour>
      <point x="148" y="187" type="line"/>
      <point x="599" y="187" type="line"/>
      <point x="579" y="239" type="line"/>
      <point x="168" y="239" type="line"/>
    </contour>
    <contour>
      <point x="711" y="0" type="move" name="ogonek"/>
    </contour>
    <contour>
      <point x="372" y="690" type="move" name="top"/>
    </contour>
  </outline>
</glyph>
<glyph name="Aogonek.ss03" format="1">
  <advance width="746"/>
  <outline>
    <contour>
      <point x="35" y="0" type="line"/>
      <point x="105" y="0" type="line"/>
      <point x="360" y="632" type="line"/>
      <point x="384" y="632" type="line"/>
      <point x="639" y="0" type="line"/>
      <point x="711" y="0" type="line"/>
      <point x="431" y="690" type="line"/>
      <point x="315" y="690" type="line"/>
    </contour>
    <contour>
      <point x="148" y="187" type="line"/>
      <point x="599" y="187" type="line"/>
      <point x="579" y="239" type="line"/>
      <point x="168" y="239" type="line"/>
    </contour>
    <contour>
      <point x="606" y="-148" type="curve" smooth="yes"/>
      <point x="719" y="-148" type="line"/>
      <point x="719" y="-104" type="line"/>
      <point x="613" y="-104" type="line" smooth="yes"/>
      <point x="593" y="-104"/>
      <point x="583" y="-96"/>
      <point x="583" y="-80" type="curve" smooth="yes"/>
      <point x="583" y="-56"/>
      <point x="613" y="-37"/>
      <point x="711" y="0" type="curve"/>
      <point x="639" y="9" type="line"/>
      <point x="639" y="-10" type="line"/>
      <point x="560" y="-30"/>
      <point x="535" y="-49"/>
      <point x="535" y="-92" type="curve" smooth="yes"/>
      <point x="535" y="-128"/>
      <point x="560" y="-148"/>
    </contour>
    <contour>
      <point x="711" y="0" type="move" name="ogonek"/>
    </contour>
    <contour>
      <point x="372" y="690" type="move" name="top"/>
    </contour>
  </outline>
</glyph>
<glyph name="Eth.ss03" format="1">
  <advance width="846"/>
  <note>
Eth
</note>
  <outline>
    <contour>
      <point x="42" y="326" type="line"/>
      <point x="462" y="326" type="line"/>
      <point x="462" y="378" type="line"/>
      <point x="42" y="378" type="line"/>
    </contour>
    <contour>
      <point x="154" y="0" type="line"/>
      <point x="438" y="0" type="line" smooth="yes"/>
      <point x="655" y="0"/>
      <point x="774" y="122"/>
      <point x="774" y="345" type="curve" smooth="yes"/>
      <point x="774" y="568"/>
      <point x="655" y="690"/>
      <point x="438" y="690" type="curve" smooth="yes"/>
      <point x="154" y="690" type="line"/>
    </contour>
    <contour>
      <point x="432" y="54" type="curve" smooth="yes"/>
      <point x="220" y="54" type="line"/>
      <point x="220" y="636" type="line"/>
      <point x="432" y="636" type="line" smooth="yes"/>
      <point x="615" y="636"/>
      <point x="704" y="546"/>
      <point x="704" y="346" type="curve" smooth="yes"/>
      <point x="704" y="344" type="line" smooth="yes"/>
      <point x="704" y="144"/>
      <point x="615" y="54"/>
    </contour>
  </outline>
</glyph>
<glyph name="H.ss03" format="1">
  <advance width="796"/>
  <outline>
    <contour>
      <point x="610" y="0" type="line"/>
      <point x="676" y="0" type="line"/>
      <point x="676" y="690" type="line"/>
      <point x="610" y="690" type="line"/>
    </contour>
    <contour>
      <point x="120" y="0" type="line"/>
      <point x="186" y="0" type="line"/>
      <point x="186" y="690" type="line"/>
      <point x="120" y="690" type="line"/>
    </contour>
    <contour>
      <point x="153" y="326" type="line"/>
      <point x="642" y="326" type="line"/>
      <point x="642" y="378" type="line"/>
      <point x="153" y="378" type="line"/>
    </contour>
  </outline>
</glyph>
<glyph name="Lslash.ss03" format="1">
  <advance width="710"/>
  <note>
Lslash
</note>
  <outline>
    <contour>
      <point x="155" y="0" type="line"/>
      <point x="657" y="0" type="line"/>
      <point x="657" y="200" type="line"/>
      <point x="599" y="200" type="line"/>
      <point x="599" y="54" type="line"/>
      <point x="221" y="54" type="line"/>
      <point x="221" y="690" type="line"/>
      <point x="155" y="690" type="line"/>
    </contour>
    <contour>
      <point x="195" y="690" type="line"/>
      <point x="195" y="636" type="line"/>
      <point x="333" y="636" type="line"/>
      <point x="333" y="690" type="line"/>
    </contour>
    <contour>
      <point x="43" y="182" type="line"/>
      <point x="443" y="382" type="line"/>
      <point x="443" y="436" type="line"/>
      <point x="43" y="236" type="line"/>
    </contour>
  </outline>
</glyph>
<glyph name="N.ss03" format="1">
  <advance width="800"/>
  <outline>
    <contour>
      <point x="120" y="0" type="line"/>
      <point x="184" y="0" type="line"/>
      <point x="184" y="492" type="line" smooth="yes"/>
      <point x="184" y="523"/>
      <point x="181" y="555"/>
      <point x="174" y="618" type="curve"/>
      <point x="198" y="618" type="line"/>
      <point x="618" y="0" type="line"/>
      <point x="680" y="0" type="line"/>
      <point x="680" y="690" type="line"/>
      <point x="616" y="690" type="line"/>
      <point x="616" y="256" type="line" smooth="yes"/>
      <point x="616" y="225"/>
      <point x="619" y="193"/>
      <point x="626" y="130" type="curve"/>
      <point x="602" y="130" type="line"/>
      <point x="222" y="690" type="line"/>
      <point x="120" y="690" type="line"/>
    </contour>
    <contour>
      <point x="400" y="690" type="move" name="top"/>
    </contour>
  </outline>
</glyph>
<glyph name="P.ss03" format="1">
  <advance width="712"/>
  <outline>
    <contour>
      <point x="121" y="0" type="line"/>
      <point x="187" y="0" type="line"/>
      <point x="187" y="296" type="line"/>
      <point x="452" y="296" type="line" smooth="yes"/>
      <point x="579" y="296"/>
      <point x="659" y="372"/>
      <point x="659" y="492" type="curve" smooth="yes"/>
      <point x="659" y="614"/>
      <point x="579" y="690"/>
      <point x="452" y="690" type="curve" smooth="yes"/>
      <point x="121" y="690" type="line"/>
    </contour>
    <contour>
      <point x="446" y="348" type="curve" smooth="yes"/>
      <point x="187" y="348" type="line"/>
      <point x="187" y="636" type="line"/>
      <point x="446" y="636" type="line" smooth="yes"/>
      <point x="540" y="636"/>
      <point x="591" y="586"/>
      <point x="591" y="493" type="curve" smooth="yes"/>
      <point x="591" y="491" type="line" smooth="yes"/>
      <point x="591" y="398"/>
      <point x="540" y="348"/>
    </contour>
  </outline>
</glyph>
<glyph name="R.ss03" format="1">
  <advance width="764"/>
  <outline>
    <contour>
      <point x="120" y="0" type="line"/>
      <point x="186" y="0" type="line"/>
      <point x="186" y="316" type="line"/>
      <point x="431" y="316" type="line" smooth="yes"/>
      <point x="519" y="316"/>
      <point x="566" y="270"/>
      <point x="566" y="183" type="curve" smooth="yes"/>
      <point x="566" y="0" type="line"/>
      <point x="740" y="0" type="line"/>
      <point x="740" y="54" type="line"/>
      <point x="632" y="54" type="line"/>
      <point x="632" y="183" type="line" smooth="yes"/>
      <point x="632" y="267"/>
      <point x="595" y="318"/>
      <point x="526" y="328" type="curve"/>
      <point x="526" y="352" type="line"/>
      <point x="613" y="364"/>
      <point x="658" y="416"/>
      <point x="658" y="502" type="curve" smooth="yes"/>
      <point x="658" y="617"/>
      <point x="582" y="690"/>
      <point x="461" y="690" type="curve" smooth="yes"/>
      <point x="120" y="690" type="line"/>
    </contour>
    <contour>
      <point x="455" y="368" type="curve" smooth="yes"/>
      <point x="186" y="368" type="line"/>
      <point x="186" y="636" type="line"/>
      <point x="455" y="636" type="line" smooth="yes"/>
      <point x="543" y="636"/>
      <point x="590" y="590"/>
      <point x="590" y="503" type="curve" smooth="yes"/>
      <point x="590" y="501" type="line" smooth="yes"/>
      <point x="590" y="414"/>
      <point x="543" y="368"/>
    </contour>
  </outline>
</glyph>
<glyph name="Thorn.ss03" format="1">
  <advance width="723"/>
  <note>
Thorn
</note>
  <outline>
    <contour>
      <point x="154" y="156" type="line"/>
      <point x="452" y="156" type="line" smooth="yes"/>
      <point x="579" y="156"/>
      <point x="659" y="232"/>
      <point x="659" y="352" type="curve" smooth="yes"/>
      <point x="659" y="472"/>
      <point x="579" y="548"/>
      <point x="452" y="548" type="curve" smooth="yes"/>
      <point x="154" y="548" type="line"/>
      <point x="154" y="496" type="line"/>
      <point x="446" y="496" type="line" smooth="yes"/>
      <point x="540" y="496"/>
      <point x="591" y="446"/>
      <point x="591" y="353" type="curve" smooth="yes"/>
      <point x="591" y="351" type="line" smooth="yes"/>
      <point x="591" y="258"/>
      <point x="540" y="208"/>
      <point x="446" y="208" type="curve" smooth="yes"/>
      <point x="154" y="208" type="line"/>
    </contour>
    <contour>
      <point x="121" y="0" type="line"/>
      <point x="187" y="0" type="line"/>
      <point x="187" y="690" type="line"/>
      <point x="121" y="690" type="line"/>
    </contour>
  </outline>
</glyph>
<glyph name="U.ss03" format="1">
  <advance width="814"/>
  <outline>
    <contour>
      <point x="370" y="-10" type="curve" smooth="yes"/>
      <point x="486" y="-10"/>
      <point x="559" y="26"/>
      <point x="605" y="104" type="curve"/>
      <point x="629" y="104" type="line"/>
      <point x="629" y="48" type="line" smooth="yes"/>
      <point x="629" y="17"/>
      <point x="646" y="0"/>
      <point x="677" y="0" type="curve" smooth="yes"/>
      <point x="795" y="0" type="line"/>
      <point x="795" y="54" type="line"/>
      <point x="683" y="54" type="line"/>
      <point x="683" y="690" type="line"/>
      <point x="617" y="690" type="line"/>
      <point x="617" y="276" type="line" smooth="yes"/>
      <point x="617" y="119"/>
      <point x="548" y="48"/>
      <point x="397" y="48" type="curve" smooth="yes"/>
      <point x="246" y="48"/>
      <point x="177" y="119"/>
      <point x="177" y="276" type="curve" smooth="yes"/>
      <point x="177" y="690" type="line"/>
      <point x="111" y="690" type="line"/>
      <point x="111" y="260" type="line" smooth="yes"/>
      <point x="111" y="84"/>
      <point x="201" y="-10"/>
    </contour>
    <contour>
      <point x="397" y="690" type="move" name="top"/>
    </contour>
  </outline>
</glyph>
<glyph name=".notdef" format="1">
  <advance width="792"/>
  <outline>
    <contour>
      <point x="128" y="0" type="line"/>
      <point x="664" y="0" type="line"/>
      <point x="664" y="690" type="line"/>
      <point x="128" y="690" type="line"/>
    </contour>
    <contour>
      <point x="184" y="52" type="line"/>
      <point x="184" y="638" type="line"/>
      <point x="608" y="638" type="line"/>
      <point x="608" y="52" type="line"/>
    </contour>
  </outline>
</glyph>
<glyph name="f_f" format="1">
  <advance width="886"/>
  <outline>
    <contour>
      <point x="166" y="642" type="curve" smooth="yes"/>
      <point x="166" y="0" type="line"/>
      <point x="230" y="0" type="line"/>
      <point x="230" y="638" type="line"/>
      <point x="410" y="638" type="line"/>
      <point x="410" y="690" type="line"/>
      <point x="214" y="690" type="line" smooth="yes"/>
      <point x="183" y="690"/>
      <point x="166" y="673"/>
    </contour>
    <contour>
      <point x="46" y="0" type="line"/>
      <point x="394" y="0" type="line"/>
      <point x="394" y="52" type="line"/>
      <point x="46" y="52" type="line"/>
    </contour>
    <contour>
      <point x="38" y="482" type="line"/>
      <point x="410" y="482" type="line"/>
      <point x="410" y="534" type="line"/>
      <point x="38" y="534" type="line"/>
    </contour>
    <contour>
      <point x="609" y="642" type="curve" smooth="yes"/>
      <point x="609" y="0" type="line"/>
      <point x="673" y="0" type="line"/>
      <point x="673" y="638" type="line"/>
      <point x="853" y="638" type="line"/>
      <point x="853" y="690" type="line"/>
      <point x="657" y="690" type="line" smooth="yes"/>
      <point x="626" y="690"/>
      <point x="609" y="673"/>
    </contour>
    <contour>
      <point x="489" y="0" type="line"/>
      <point x="837" y="0" type="line"/>
      <point x="837" y="52" type="line"/>
      <point x="489" y="52" type="line"/>
    </contour>
    <contour>
      <point x="481" y="482" type="line"/>
      <point x="853" y="482" type="line"/>
      <point x="853" y="534" type="line"/>
      <point x="481" y="534" type="line"/>
    </contour>
    <contour>
      <point x="335" y="482" type="line"/>
      <point x="560" y="482" type="line"/>
      <point x="560" y="534" type="line"/>
      <point x="335" y="534" type="line"/>
    </contour>
  </outline>
</glyph>
<glyph name="f_h" format="1">
  <advance width="1130"/>
  <outline>
    <contour>
      <point x="166" y="642" type="curve" smooth="yes"/>
      <point x="166" y="0" type="line"/>
      <point x="230" y="0" type="line"/>
      <point x="230" y="638" type="line"/>
      <point x="410" y="638" type="line"/>
      <point x="410" y="690" type="line"/>
      <point x="214" y="690" type="line" smooth="yes"/>
      <point x="183" y="690"/>
      <point x="166" y="673"/>
    </contour>
    <contour>
      <point x="46" y="0" type="line"/>
      <point x="394" y="0" type="line"/>
      <point x="394" y="52" type="line"/>
      <point x="46" y="52" type="line"/>
    </contour>
    <contour>
      <point x="38" y="482" type="line"/>
      <point x="410" y="482" type="line"/>
      <point x="410" y="534" type="line"/>
      <point x="38" y="534" type="line"/>
    </contour>
    <contour>
      <point x="546" y="0" type="line"/>
      <point x="610" y="0" type="line"/>
      <point x="610" y="311" type="line" smooth="yes"/>
      <point x="610" y="433"/>
      <point x="663" y="488"/>
      <point x="780" y="488" type="curve" smooth="yes"/>
      <point x="897" y="488"/>
      <point x="950" y="433"/>
      <point x="950" y="311" type="curve" smooth="yes"/>
      <point x="950" y="0" type="line"/>
      <point x="1110" y="0" type="line"/>
      <point x="1110" y="52" type="line"/>
      <point x="1014" y="52" type="line"/>
      <point x="1014" y="325" type="line" smooth="yes"/>
      <point x="1014" y="468"/>
      <point x="942" y="544"/>
      <point x="807" y="544" type="curve" smooth="yes"/>
      <point x="719" y="544"/>
      <point x="661" y="513"/>
      <point x="624" y="450" type="curve"/>
      <point x="600" y="450" type="line"/>
      <point x="607" y="513"/>
      <point x="610" y="545"/>
      <point x="610" y="576" type="curve" smooth="yes"/>
      <point x="610" y="690" type="line"/>
      <point x="450" y="690" type="line"/>
      <point x="450" y="638" type="line"/>
      <point x="546" y="638" type="line"/>
    </contour>
    <contour>
      <point x="363" y="690" type="line"/>
      <point x="363" y="638" type="line"/>
      <point x="506" y="638" type="line"/>
      <point x="506" y="690" type="line"/>
    </contour>
  </outline>
</glyph>
<glyph name="g.ss02" format="1">
  <advance width="715"/>
  <outline>
    <contour>
      <point x="338" y="-142" type="curve" smooth="yes"/>
      <point x="502" y="-142"/>
      <point x="596" y="-65"/>
      <point x="596" y="67" type="curve" smooth="yes"/>
      <point x="596" y="482" type="line"/>
      <point x="692" y="482" type="line"/>
      <point x="692" y="534" type="line"/>
      <point x="544" y="534" type="line"/>
      <point x="544" y="428" type="line"/>
      <point x="520" y="428" type="line"/>
      <point x="484" y="504"/>
      <point x="415" y="544"/>
      <point x="321" y="544" type="curve" smooth="yes"/>
      <point x="163" y="544"/>
      <point x="64" y="437"/>
      <point x="64" y="291" type="curve" smooth="yes"/>
      <point x="64" y="149"/>
      <point x="163" y="40"/>
      <point x="321" y="40" type="curve" smooth="yes"/>
      <point x="414" y="40"/>
      <point x="483" y="75"/>
      <point x="520" y="144" type="curve"/>
      <point x="542" y="144" type="line"/>
      <point x="537" y="108"/>
      <point x="536" y="87"/>
      <point x="535" y="70" type="curve" smooth="yes"/>
      <point x="529" y="-34"/>
      <point x="461" y="-86"/>
      <point x="334" y="-86" type="curve" smooth="yes"/>
      <point x="228" y="-86"/>
      <point x="159" y="-45"/>
      <point x="159" y="-7" type="curve"/>
      <point x="159" y="-7" type="line"/>
      <point x="93" y="-7" type="line"/>
      <point x="120" y="-93"/>
      <point x="207" y="-142"/>
    </contour>
    <contour>
      <point x="338" y="94" type="curve" smooth="yes"/>
      <point x="198" y="94"/>
      <point x="132" y="165"/>
      <point x="132" y="290" type="curve" smooth="yes"/>
      <point x="132" y="292" type="line" smooth="yes"/>
      <point x="132" y="417"/>
      <point x="198" y="488"/>
      <point x="338" y="488" type="curve" smooth="yes"/>
      <point x="470" y="488"/>
      <point x="532" y="417"/>
      <point x="532" y="292" type="curve" smooth="yes"/>
      <point x="532" y="290" type="line" smooth="yes"/>
      <point x="532" y="165"/>
      <point x="470" y="94"/>
    </contour>
  </outline>
</glyph>
<glyph name="periodcentered.loclCAT" format="1">
  <advance width="172"/>
  <outline>
    <contour>
      <point x="45" y="303" type="line"/>
      <point x="127" y="303" type="line"/>
      <point x="127" y="381" type="line"/>
      <point x="45" y="381" type="line"/>
    </contour>
  </outline>
</glyph>
<glyph name="questiondown.case" format="1">
  <advance width="638"/>
  <outline>
    <contour>
      <point x="363" y="434" type="curve" smooth="yes"/>
      <point x="360" y="516" type="line"/>
      <point x="322" y="516" type="line"/>
      <point x="319" y="452" type="line" smooth="yes"/>
      <point x="317" y="412"/>
      <point x="292" y="387"/>
      <point x="236" y="373" type="curve" smooth="yes"/>
      <point x="109" y="342"/>
      <point x="57" y="279"/>
      <point x="57" y="184" type="curve" smooth="yes"/>
      <point x="57" y="184" type="line" smooth="yes"/>
      <point x="57" y="64"/>
      <point x="155" y="-10"/>
      <point x="321" y="-10" type="curve" smooth="yes"/>
      <point x="480" y="-10"/>
      <point x="567" y="61"/>
      <point x="590" y="211" type="curve"/>
      <point x="524" y="211" type="line"/>
      <point x="524" y="211" type="line" smooth="yes"/>
      <point x="524" y="111"/>
      <point x="456" y="47"/>
      <point x="321" y="47" type="curve" smooth="yes"/>
      <point x="198" y="47"/>
      <point x="122" y="96"/>
      <point x="122" y="183" type="curve" smooth="yes"/>
      <point x="122" y="183" type="line" smooth="yes"/>
      <point x="122" y="247"/>
      <point x="161" y="294"/>
      <point x="262" y="318" type="curve" smooth="yes"/>
      <point x="332" y="335"/>
      <point x="365" y="373"/>
    </contour>
    <contour>
      <point x="384" y="690" type="line"/>
      <point x="298" y="690" type="line"/>
      <point x="298" y="608" type="line"/>
      <point x="384" y="608" type="line"/>
    </contour>
  </outline>
</glyph>
